<svg xmlns="http://www.w3.org/2000/svg" width="360.849" height="70.104" viewBox="0 0 360.849 70.104"><defs><style>.a{fill:#563d82;}.b{fill:#6f5091;}</style></defs><g transform="translate(-54.79 -308.591)"><g transform="translate(54.79 308.591)"><path class="a" d="M115.186,329.258v2.273c-.01.193-.019.4-.029.588-.019.3-.048.588-.067.876-.01.1-.019.183-.029.28-.029.2-.048.395-.077.588-.086.684-.2,1.349-.347,2-.048.212-.1.424-.154.626q-.058.275-.145.549c-.058.241-.135.472-.2.7-.01.02-.01.029-.019.048-.1.308-.2.617-.318.915s-.241.617-.366.915-.27.607-.414.9a15.171,15.171,0,0,1-.944,1.686c-.154.241-.308.482-.472.713-.077.106-.154.212-.231.308-.106.145-.222.289-.327.434-.135.173-.279.347-.424.52s-.289.337-.443.51c-.106.106-.212.212-.318.328-.221.231-.443.453-.684.674a16.253,16.253,0,0,1-1.532,1.272,15.186,15.186,0,0,1-1.754,1.137c-.2.116-.414.221-.626.337-.318.164-.636.318-.963.472a9.393,9.393,0,0,1-.964.424,23.29,23.29,0,0,1-6.455,1.445c-.154.01-.318.019-.472.019-.174.01-.347.01-.53.019l-9.933.058,6.7-11.542c.192,0,.395,0,.578-.01h1.1c5.819,0,9.268-3.439,9.268-8.555,0-5.27-3.449-8.565-9.268-8.565H66.611v18.671c-7.572,2.977-11.821,9.885-11.821,18.912v-49.5H94.328c.674,0,1.339.019,1.985.058.327.019.645.048.963.077s.626.067.935.106.617.087.915.135a23.505,23.505,0,0,1,2.611.588c.279.077.559.164.829.251s.539.183.8.279a21.166,21.166,0,0,1,2.274,1.011c.183.1.356.193.53.289.086.048.173.106.26.154.192.116.385.231.568.347.222.144.443.289.655.443a14.938,14.938,0,0,1,1.224.954c.183.154.356.308.53.472a.309.309,0,0,0,.077.058,6.666,6.666,0,0,1,.52.52c.183.193.357.376.53.568a17.43,17.43,0,0,1,1.821,2.5c.116.193.231.4.337.6.1.174.192.357.289.54.116.231.231.462.337.694.1.212.183.434.27.646.058.144.116.289.173.443s.116.3.164.453a1.032,1.032,0,0,1,.068.183c.1.3.192.6.279.906.077.25.145.5.212.761.1.385.183.78.27,1.176a22.917,22.917,0,0,1,.357,2.64c.029.27.048.53.058.809C115.176,329.046,115.186,329.152,115.186,329.258Z" transform="translate(-54.79 -309.728)"/><path class="b" d="M54.86,400.935v-2.274c.01-.193.019-.4.029-.588.019-.3.048-.588.068-.877.01-.1.019-.183.029-.279.029-.2.048-.4.077-.588.086-.684.2-1.349.347-2,.048-.212.1-.424.154-.626q.058-.275.145-.549c.058-.241.135-.472.2-.7.01-.019.01-.029.019-.048.1-.308.2-.617.318-.915s.241-.617.366-.915.27-.607.414-.9a15.165,15.165,0,0,1,.944-1.686c.154-.241.308-.482.472-.713.077-.106.154-.212.231-.308.106-.145.221-.289.327-.433.135-.174.279-.347.424-.52s.289-.337.443-.511c.106-.106.212-.212.318-.327.222-.231.443-.453.684-.674a16.262,16.262,0,0,1,1.532-1.272,15.13,15.13,0,0,1,1.754-1.137c.2-.116.414-.222.626-.337.318-.164.636-.318.963-.472a9.439,9.439,0,0,1,.964-.424,23.3,23.3,0,0,1,6.455-1.445c.154-.01.318-.019.472-.019.174-.01.347-.01.53-.019l9.933-.058-6.7,11.542c-.193,0-.4,0-.578.01h-1.1c-5.819,0-9.268,3.439-9.268,8.555,0,5.269,3.449,8.565,9.268,8.565h27.708V389.317c7.572-2.977,11.821-9.884,11.821-18.912v49.5H75.718c-.674,0-1.339-.019-1.985-.058-.327-.019-.645-.048-.963-.077s-.626-.067-.935-.106-.617-.087-.915-.135a23.588,23.588,0,0,1-2.611-.588c-.279-.077-.559-.164-.829-.251s-.539-.183-.8-.28a21.077,21.077,0,0,1-2.273-1.011c-.183-.1-.357-.193-.53-.289-.086-.048-.173-.106-.26-.154-.192-.116-.385-.231-.568-.347-.222-.145-.443-.289-.655-.443a14.737,14.737,0,0,1-1.223-.954c-.183-.154-.357-.308-.53-.472a.317.317,0,0,0-.077-.058,6.609,6.609,0,0,1-.52-.52c-.183-.193-.357-.376-.53-.568a17.432,17.432,0,0,1-1.821-2.5c-.116-.192-.231-.395-.337-.6-.1-.173-.192-.357-.289-.539-.116-.231-.231-.462-.337-.694-.1-.212-.183-.433-.27-.645-.058-.145-.116-.289-.173-.443s-.116-.3-.164-.453a1,1,0,0,1-.067-.183c-.1-.3-.193-.6-.28-.905-.077-.251-.145-.5-.212-.761-.1-.385-.183-.78-.27-1.175a22.925,22.925,0,0,1-.357-2.64c-.029-.27-.048-.53-.058-.809C54.87,401.147,54.86,401.041,54.86,400.935Z" transform="translate(-54.837 -350)"/><g transform="translate(79.047)"><path class="a" d="M321.249,310.181h-27v40.042h8.094V318.774h18.907c3.973,0,6.323,2.371,6.323,6.173,0,3.685-2.351,6.164-6.323,6.164h-9.583l-4.576,8.321h14.159c8.987,0,14.26-6.007,14.26-14.766C335.51,315.8,330.236,310.181,321.249,310.181Z" transform="translate(-294.248 -309.656)"/><path class="a" d="M524.939,399.31v8.658h.008V399.31Zm6.433,8.541-.008.008h1.724v-.008Z" transform="translate(-448.786 -369.363)"/><path class="a" d="M478.1,346.52l-4.075,7h16.807v-7Zm20.881-15.2v30.739h-1.716l-.008.008h1.732V331.319Z" transform="translate(-414.679 -323.816)"/><path class="a" d="M533.088,309.825v38.08h-8.141v-8.658h-.008V309.825Z" transform="translate(-448.786 -309.418)"/><rect class="a" width="8.149" height="38.08" transform="translate(46.488 0.525)"/><path class="a" d="M593.719,344.313l-19.91-33.1c-.94-1.567-2.139-2.617-3.918-2.617s-2.97,1.05-3.918,2.617l-19.839,33-.008.016v2.86H544.41l-.008.008h9.246l15.937-27,6.942,11.7h-8.564l-3.706,6.323h16.031l5.328,8.98h9.771Z" transform="translate(-461.824 -308.591)"/><path class="a" d="M737.464,346.373l-9.614-9.661c4.756-1.881,7.679-6.214,7.679-12.427,0-8.619-5.273-14.1-14.159-14.1H693.8v37.971h8.094V318.33H721.37c3.871,0,6.166,2.139,6.166,6.167s-2.194,6.37-6.166,6.37H710.69l-4.043,6.942h11.8l9.246,10.343h11.542Z" transform="translate(-561.903 -309.656)"/><path class="a" d="M880.982,345.074l-8.69-33.026c-.58-2.194-1.881-3.291-3.871-3.291a4.174,4.174,0,0,0-3.863,2.719L853.276,335.6l-11.283-24.125a4.562,4.562,0,0,0-4.075-2.719c-2.092,0-3.393,1.1-3.965,3.291l-8.831,33.371-.47,1.779h7.992l6.159-23.969,10.084,21.461c.885,1.935,2.194,3.032,4.129,3.032,1.982,0,3.181-1.1,4.121-3.032l10.139-21.461,6.214,23.969h8.047Z" transform="translate(-649.562 -308.702)"/><path class="a" d="M1020.836,311.208c-.94-1.567-2.147-2.617-3.918-2.617s-2.977,1.05-3.918,2.617l-20.3,33.755-1.277,2.124h9.254l15.929-27,6.942,11.7h-8.564l-3.706,6.323h16.031l5.328,8.98h9.771Z" transform="translate(-761.279 -308.591)"/><path class="a" d="M310.025,470.574h-8.7a2.313,2.313,0,1,1,.031-4.623h13.634v-3.315H301.359c-3.792,0-5.853,2.272-5.853,5.328,0,3.134,2.218,5.406,5.8,5.406h8.721c1.779,0,2.774.838,2.774,2.452,0,1.489-1,2.484-2.774,2.484H295.8v3.315h14.229c3.973,0,5.908-2.374,5.908-5.563C315.933,472.376,313.865,470.574,310.025,470.574Z" transform="translate(-295.091 -411.785)"/><path class="a" d="M414.977,462.637h-4.631a8.867,8.867,0,0,0-9.214,9.3c0,5.508,3.918,9.685,9.214,9.685h4.631c5.4,0,9.293-4.177,9.293-9.685A8.874,8.874,0,0,0,414.977,462.637Zm0,15.671h-4.631a5.881,5.881,0,0,1-5.9-6.213,5.817,5.817,0,0,1,5.9-6.143h4.631a5.834,5.834,0,0,1,5.979,6.143A5.9,5.9,0,0,1,414.977,478.308Z" transform="translate(-365.849 -411.785)"/><path class="a" d="M519.494,478.308V462.637H516.18v18.986h16.086v-3.315Z" transform="translate(-442.918 -411.785)"/><path class="a" d="M625.276,462.637v10.6c0,3.816-1.693,5.383-6.919,5.383s-6.919-1.567-6.919-5.383v-10.6h-3.424v10.6c0,5.877,2.93,8.65,10.241,8.65,7.365,0,10.264-2.774,10.264-8.65v-10.6Z" transform="translate(-504.438 -411.785)"/><path class="a" d="M712.619,462.637v3.315h7.209v15.671h3.315V465.952h7.209v-3.315Z" transform="translate(-574.511 -411.785)"/><path class="a" d="M810.34,462.637v18.986h3.315V462.637Z" transform="translate(-639.974 -411.785)"/><path class="a" d="M879.87,462.637h-4.623a8.869,8.869,0,0,0-9.222,9.3c0,5.508,3.918,9.685,9.222,9.685h4.623c5.406,0,9.293-4.177,9.293-9.685A8.87,8.87,0,0,0,879.87,462.637Zm0,15.671h-4.623a5.882,5.882,0,0,1-5.908-6.213,5.819,5.819,0,0,1,5.908-6.143h4.623a5.834,5.834,0,0,1,5.978,6.143A5.9,5.9,0,0,1,879.87,478.308Z" transform="translate(-677.277 -411.785)"/><path class="a" d="M997.338,462V475.9l-13.4-13.289a1.868,1.868,0,0,0-1.411-.682c-1.042,0-1.693.76-1.693,1.99v17.23h3.158V467.253l13.344,13.422a2.116,2.116,0,0,0,1.52.705c.964,0,1.645-.729,1.645-1.983V462Z" transform="translate(-754.188 -411.308)"/><path class="a" d="M1100.577,470.574h-8.7a2.313,2.313,0,1,1,.024-4.623h13.633v-3.315H1091.9c-3.785,0-5.845,2.272-5.845,5.328,0,3.134,2.217,5.406,5.8,5.406h8.721c1.779,0,2.774.838,2.774,2.452,0,1.489-.995,2.484-2.774,2.484h-14.229v3.315h14.229c3.973,0,5.9-2.374,5.9-5.563C1106.477,472.376,1104.416,470.574,1100.577,470.574Z" transform="translate(-824.675 -411.785)"/></g></g></g></svg>