<svg xmlns="http://www.w3.org/2000/svg" width="20" height="20" viewBox="0 0 20 20">
  <g id="add-40" transform="translate(-3.863)">
    <path id="Path_1688" data-name="Path 1688" d="M13.863,20a10,10,0,1,1,10-10A10.011,10.011,0,0,1,13.863,20Zm0-19.13A9.131,9.131,0,1,0,22.994,10,9.141,9.141,0,0,0,13.863.87Z" fill="#603d82"/>
    <path id="Path_1689" data-name="Path 1689" d="M285.9,494.324a.456.456,0,0,1-.323.134h-8.94a.456.456,0,1,1,0-.913h8.94a.456.456,0,0,1,.323.779Z" transform="translate(-267.23 -483.927)" fill="#603d82"/>
    <path id="Path_1690" data-name="Path 1690" d="M494.348,276.343a.457.457,0,0,1-.779-.323v-9.161a.456.456,0,0,1,.913,0v9.161A.455.455,0,0,1,494.348,276.343Z" transform="translate(-480.162 -261.439)" fill="#603d82"/>
  </g>
</svg>
