<svg xmlns="http://www.w3.org/2000/svg" width="28" height="28" viewBox="0 0 28 28"><defs><style>.a{fill:#fff;stroke:#603d82;stroke-width:2px;}</style></defs><path class="a" d="M201,242a13,13,0,1,0,13,13A13.015,13.015,0,0,0,201,242Zm0,22.148A9.148,9.148,0,1,1,210.148,255,9.159,9.159,0,0,1,201,264.148ZM206.778,255a1.926,1.926,0,0,1-1.926,1.926h-1.926v1.926a1.926,1.926,0,0,1-3.852,0v-1.926h-1.926a1.926,1.926,0,0,1,0-3.852h1.926v-1.926a1.926,1.926,0,1,1,3.852,0v1.926h1.926A1.926,1.926,0,0,1,206.778,255Z" transform="translate(-187 -241)"/></svg>