<svg xmlns="http://www.w3.org/2000/svg" width="32.157" height="32.157" viewBox="0 0 32.157 32.157"><defs><style>.a{fill:#603d82;}</style></defs><path class="a" d="M17.239,16.34H5.034C3.911,16.34,3,16.04,3,15.67S3.911,15,5.034,15h12.2c1.123,0,2.034.3,2.034.67S18.361,16.34,17.239,16.34Z" transform="translate(1.02 5.098)"/><path class="a" d="M19.709,17.418a8.709,8.709,0,1,1,8.709-8.709A8.719,8.719,0,0,1,19.709,17.418Zm0-16.078a7.369,7.369,0,1,0,7.369,7.369A7.377,7.377,0,0,0,19.709,1.34Z" transform="translate(3.739 0)"/><path class="a" d="M17.67,12.379a.67.67,0,0,1-.67-.67V3.67a.67.67,0,0,1,1.34,0v8.039A.67.67,0,0,1,17.67,12.379Z" transform="translate(5.778 1.02)"/><path class="a" d="M22.709,7.34H14.67a.67.67,0,0,1,0-1.34h8.039a.67.67,0,0,1,0,1.34Z" transform="translate(4.758 2.039)"/><path class="a" d="M23.448,32.157H3.35A3.354,3.354,0,0,1,0,28.807V3.35A3.354,3.354,0,0,1,3.35,0h9.379a.67.67,0,0,1,0,1.34H3.35A2.012,2.012,0,0,0,1.34,3.35V28.807a2.012,2.012,0,0,0,2.01,2.01h20.1a2.012,2.012,0,0,0,2.01-2.01V20.768a.67.67,0,1,1,1.34,0v8.039A3.354,3.354,0,0,1,23.448,32.157Z" transform="translate(0 0)"/><path class="a" d="M17.239,16.34H5.034C3.911,16.34,3,16.04,3,15.67S3.911,15,5.034,15h12.2c1.123,0,2.034.3,2.034.67S18.361,16.34,17.239,16.34Z" transform="translate(1.019 8.505)"/><path class="a" d="M17.239,16.34H5.034C3.911,16.34,3,16.04,3,15.67S3.911,15,5.034,15h12.2c1.123,0,2.034.3,2.034.67S18.361,16.34,17.239,16.34Z" transform="translate(1.019 11.912)"/></svg>