<svg xmlns="http://www.w3.org/2000/svg" width="18.875" height="18.875" viewBox="0 0 18.875 18.875"><defs><style>.a{fill:#603d82;}</style></defs><path class="a" d="M11.358,15.786H4.194C3.535,15.786,3,15.61,3,15.393S3.535,15,4.194,15h7.164c.659,0,1.194.176,1.194.393S12.017,15.786,11.358,15.786Z" transform="translate(-0.641 -3.203)"/><path class="a" d="M16.112,10.224a5.112,5.112,0,1,1,5.112-5.112A5.118,5.118,0,0,1,16.112,10.224Zm0-9.438a4.326,4.326,0,1,0,4.326,4.326A4.33,4.33,0,0,0,16.112.786Z" transform="translate(-2.349)"/><path class="a" d="M17.393,8.505A.393.393,0,0,1,17,8.112V3.393a.393.393,0,1,1,.786,0V8.112A.393.393,0,0,1,17.393,8.505Z" transform="translate(-3.63 -0.641)"/><path class="a" d="M19.112,6.786H14.393a.393.393,0,0,1,0-.786h4.719a.393.393,0,0,1,0,.786Z" transform="translate(-2.989 -1.281)"/><path class="a" d="M13.763,18.875H1.966A1.969,1.969,0,0,1,0,16.909V1.966A1.969,1.969,0,0,1,1.966,0H7.472a.393.393,0,1,1,0,.786H1.966a1.181,1.181,0,0,0-1.18,1.18V16.909a1.181,1.181,0,0,0,1.18,1.18h11.8a1.181,1.181,0,0,0,1.18-1.18V12.19a.393.393,0,1,1,.786,0v4.719A1.969,1.969,0,0,1,13.763,18.875Z"/><path class="a" d="M11.358,15.786H4.194C3.535,15.786,3,15.61,3,15.393S3.535,15,4.194,15h7.164c.659,0,1.194.176,1.194.393S12.017,15.786,11.358,15.786Z" transform="translate(-0.641 -1.203)"/><path class="a" d="M11.358,15.786H4.194C3.535,15.786,3,15.61,3,15.393S3.535,15,4.194,15h7.164c.659,0,1.194.176,1.194.393S12.017,15.786,11.358,15.786Z" transform="translate(-0.641 0.797)"/></svg>