<svg xmlns="http://www.w3.org/2000/svg" width="26.395" height="31.631" viewBox="0 0 26.395 31.631">
  <g id="admin" transform="translate(0.004 0.001)">
    <path id="Path_8" data-name="Path 8" d="M94.648,15.233A7.37,7.37,0,0,0,100.034,13a7.371,7.371,0,0,0,2.231-5.385,7.371,7.371,0,0,0-2.232-5.385,7.615,7.615,0,0,0-10.771,0A7.37,7.37,0,0,0,87.03,7.615,7.37,7.37,0,0,0,89.263,13,7.373,7.373,0,0,0,94.648,15.233ZM90.573,3.542a5.762,5.762,0,0,1,8.15,0,5.507,5.507,0,0,1,1.689,4.075,5.506,5.506,0,0,1-1.689,4.075,5.761,5.761,0,0,1-8.15,0,5.5,5.5,0,0,1-1.689-4.075,5.506,5.506,0,0,1,1.689-4.075Zm0,0" transform="translate(-81.656)" fill="#603d82"/>
    <path id="Path_9" data-name="Path 9" d="M26.32,256.358a18.813,18.813,0,0,0-.256-2,15.744,15.744,0,0,0-.491-2.009,9.923,9.923,0,0,0-.826-1.874,7.064,7.064,0,0,0-1.245-1.623,5.492,5.492,0,0,0-1.789-1.124,6.184,6.184,0,0,0-2.284-.413,2.318,2.318,0,0,0-1.238.525c-.371.242-.805.522-1.29.831a7.387,7.387,0,0,1-1.669.735,6.479,6.479,0,0,1-4.082,0,7.366,7.366,0,0,1-1.667-.735c-.48-.307-.914-.587-1.291-.832a2.316,2.316,0,0,0-1.237-.525,6.175,6.175,0,0,0-2.284.414,5.486,5.486,0,0,0-1.789,1.124,7.064,7.064,0,0,0-1.245,1.623,9.941,9.941,0,0,0-.826,1.874,15.784,15.784,0,0,0-.491,2.009,18.684,18.684,0,0,0-.256,2c-.042.6-.063,1.232-.063,1.867A5.251,5.251,0,0,0,1.56,262.2a5.614,5.614,0,0,0,4.019,1.466H20.806a5.614,5.614,0,0,0,4.019-1.466,5.249,5.249,0,0,0,1.56-3.973C26.384,257.589,26.362,256.96,26.32,256.358Zm-2.774,4.5a3.78,3.78,0,0,1-2.741.955H5.578a3.78,3.78,0,0,1-2.741-.955,3.429,3.429,0,0,1-.984-2.63c0-.593.02-1.178.059-1.739a16.853,16.853,0,0,1,.232-1.8,13.92,13.92,0,0,1,.432-1.771,8.093,8.093,0,0,1,.672-1.524,5.236,5.236,0,0,1,.915-1.2,3.642,3.642,0,0,1,1.19-.74,4.265,4.265,0,0,1,1.459-.282c.065.034.18.1.368.222.381.248.82.532,1.306.842a9.182,9.182,0,0,0,2.094.936,8.332,8.332,0,0,0,5.222,0,9.193,9.193,0,0,0,2.1-.937c.5-.317.924-.593,1.3-.841a4.146,4.146,0,0,1,.368-.222,4.269,4.269,0,0,1,1.46.282,3.648,3.648,0,0,1,1.19.74,5.222,5.222,0,0,1,.915,1.2,8.067,8.067,0,0,1,.672,1.523,13.889,13.889,0,0,1,.432,1.771,17,17,0,0,1,.232,1.8h0c.039.56.059,1.144.059,1.739a3.429,3.429,0,0,1-.984,2.629Zm0,0" transform="translate(0 -232.041)" fill="#603d82"/>
  </g>
</svg>
