<svg id="cancel-25" xmlns="http://www.w3.org/2000/svg" width="20" height="20.087" viewBox="0 0 20 20.087">
  <path id="Path_1683" data-name="Path 1683" d="M81.835,90.587a10.045,10.045,0,0,1-9.951-8.678.572.572,0,0,1,1.133-.154,8.9,8.9,0,1,0,.8-5.076.572.572,0,1,1-1.03-.5,10.048,10.048,0,1,1,9.049,14.406Zm0,0" transform="translate(-71.879 -70.5)" fill="#603d82"/>
  <path id="Path_1684" data-name="Path 1684" d="M290.046,288.164a.624.624,0,0,1-.453-.194l-8.681-9.108a.625.625,0,0,1,.905-.863l8.681,9.108a.625.625,0,0,1-.453,1.057Zm0,0" transform="translate(-275.993 -273.093)" fill="#603d82"/>
  <path id="Path_1685" data-name="Path 1685" d="M297.488,293.967a.625.625,0,0,1-.475-1.031l8.124-9.536a.625.625,0,1,1,.951.811l-8.124,9.536a.623.623,0,0,1-.476.22Zm0,0" transform="translate(-291.747 -278.347)" fill="#603d82"/>
</svg>
