<svg xmlns="http://www.w3.org/2000/svg" width="20" height="19.38" viewBox="0 0 20 19.38">
  <path id="edit-53" d="M70.246,74.776a.16.16,0,0,0-.032.055l-1,3.653a.622.622,0,0,0,.76.761l3.627-.989c.006,0,.009.005.013.005a.157.157,0,0,0,.114-.047l9.7-9.7a1.552,1.552,0,0,0,.446-1.109,1.9,1.9,0,0,0-.565-1.327l-.916-.917a1.9,1.9,0,0,0-1.328-.566,1.554,1.554,0,0,0-1.109.446l-9.7,9.7c-.01.009-.007.023-.014.034m12.235-7.21-.963.963-1.562-1.586.95-.95a.452.452,0,0,1,.613.044l.917.917a.5.5,0,0,1,.15.348.369.369,0,0,1-.1.264m-10.51,7.362,7-7,1.562,1.588L73.546,76.5l-1.575-1.574ZM70.7,77.766l.506-1.856,1.349,1.349-1.855.507Zm11.868-6.357a.691.691,0,0,0-.692.671v9.074a.845.845,0,0,1-.86.842H66.095a.818.818,0,0,1-.827-.842V66.22a.81.81,0,0,1,.827-.832H76.333a.694.694,0,0,0,.669-.7.684.684,0,0,0-.669-.685H65.993a2.13,2.13,0,0,0-2.117,2.113V81.256a2.144,2.144,0,0,0,2.117,2.129H81.114a2.165,2.165,0,0,0,2.141-2.129V72.076a.689.689,0,0,0-.691-.666" transform="translate(-63.876 -64.006)" fill="#603d82"/>
</svg>
