<svg xmlns="http://www.w3.org/2000/svg" width="15.144" height="15.067" viewBox="0 0 15.144 15.067"><defs><style>.a{fill:#fff;}</style></defs><g transform="translate(0 -0.001)"><path class="a" d="M13.977,47.16a.377.377,0,0,0-.377.377v3.349a1.133,1.133,0,0,1-1.131,1.131H1.886A1.133,1.133,0,0,1,.754,50.886V41.058a1.133,1.133,0,0,1,1.131-1.131h3.35a.377.377,0,1,0,0-.754H1.886A1.888,1.888,0,0,0,0,41.058v9.828a1.888,1.888,0,0,0,1.886,1.886H12.468a1.888,1.888,0,0,0,1.886-1.886V47.537a.377.377,0,0,0-.377-.377Zm0,0" transform="translate(0 -37.704)"/><path class="a" d="M118.314.758a1.7,1.7,0,0,0-2.4,0l-6.729,6.729a.377.377,0,0,0-.1.166l-.885,3.194a.377.377,0,0,0,.464.464l3.194-.885a.377.377,0,0,0,.166-.1L118.757,3.6a1.7,1.7,0,0,0,0-2.4Zm-8.307,6.974,5.507-5.507L117.29,4l-5.507,5.507Zm-.355.712,1.419,1.419-1.963.544Zm8.571-5.376-.4.4-1.776-1.776.4-.4a.943.943,0,0,1,1.333,0l.443.443a.944.944,0,0,1,0,1.332Zm0,0" transform="translate(-104.109 -0.261)"/></g></svg>