<svg xmlns="http://www.w3.org/2000/svg" width="25.455" height="25.455" viewBox="0 0 25.455 25.455"><defs><style>.a{fill:#603d82;}</style></defs><g transform="translate(0 0)"><path class="a" d="M14.271,16.061H4.61c-.889,0-1.61-.238-1.61-.53S3.721,15,4.61,15h9.661c.889,0,1.61.238,1.61.53S15.16,16.061,14.271,16.061Z" transform="translate(0.182 0.909)"/><path class="a" d="M17.894,13.788a6.894,6.894,0,1,1,6.894-6.894A6.9,6.9,0,0,1,17.894,13.788Zm0-12.727a5.833,5.833,0,1,0,5.833,5.833A5.84,5.84,0,0,0,17.894,1.061Z" transform="translate(0.667 0)"/><path class="a" d="M17.53,10.424a.53.53,0,0,1-.53-.53V3.53a.53.53,0,1,1,1.061,0V9.894A.53.53,0,0,1,17.53,10.424Z" transform="translate(1.03 0.182)"/><path class="a" d="M20.894,7.061H14.53A.53.53,0,0,1,14.53,6h6.364a.53.53,0,0,1,0,1.061Z" transform="translate(0.849 0.364)"/><path class="a" d="M18.561,25.455H2.652A2.655,2.655,0,0,1,0,22.8V2.652A2.655,2.655,0,0,1,2.652,0h7.424a.53.53,0,0,1,0,1.061H2.652A1.593,1.593,0,0,0,1.061,2.652V22.8a1.593,1.593,0,0,0,1.591,1.591H18.561A1.593,1.593,0,0,0,20.152,22.8V16.439a.53.53,0,1,1,1.061,0V22.8A2.655,2.655,0,0,1,18.561,25.455Z" transform="translate(0 0)"/><path class="a" d="M14.271,16.061H4.61c-.889,0-1.61-.238-1.61-.53S3.721,15,4.61,15h9.661c.889,0,1.61.238,1.61.53S15.16,16.061,14.271,16.061Z" transform="translate(0.182 3.606)"/><path class="a" d="M14.271,16.061H4.61c-.889,0-1.61-.238-1.61-.53S3.721,15,4.61,15h9.661c.889,0,1.61.238,1.61.53S15.16,16.061,14.271,16.061Z" transform="translate(0.182 6.303)"/></g></svg>