<svg xmlns="http://www.w3.org/2000/svg" width="34.949" height="34.949" viewBox="0 0 34.949 34.949"><defs><style>.a{fill:#603d82;}</style></defs><g transform="translate(-1038 -947.841)"><g transform="translate(1038 947.841)"><path class="a" d="M18.475,16.456H5.211C3.99,16.456,3,16.13,3,15.728S3.99,15,5.211,15H18.475c1.22,0,2.211.326,2.211.728S19.7,16.456,18.475,16.456Z" transform="translate(1.369 6.843)"/><path class="a" d="M20.465,18.931a9.465,9.465,0,1,1,9.465-9.465A9.476,9.476,0,0,1,20.465,18.931Zm0-17.475a8.009,8.009,0,1,0,8.009,8.009A8.018,8.018,0,0,0,20.465,1.456Z" transform="translate(5.018 0)"/><path class="a" d="M25.484,34.949H3.641A3.646,3.646,0,0,1,0,31.309V3.641A3.646,3.646,0,0,1,3.641,0H13.834a.728.728,0,0,1,0,1.456H3.641A2.187,2.187,0,0,0,1.456,3.641V31.309a2.187,2.187,0,0,0,2.184,2.184H25.484a2.187,2.187,0,0,0,2.184-2.184V22.571a.728.728,0,1,1,1.456,0v8.737A3.646,3.646,0,0,1,25.484,34.949Z" transform="translate(0 0)"/><path class="a" d="M18.475,16.456H5.211C3.99,16.456,3,16.13,3,15.728S3.99,15,5.211,15H18.475c1.22,0,2.211.326,2.211.728S19.7,16.456,18.475,16.456Z" transform="translate(1.369 10.546)"/><path class="a" d="M18.475,16.456H5.211C3.99,16.456,3,16.13,3,15.728S3.99,15,5.211,15H18.475c1.22,0,2.211.326,2.211.728S19.7,16.456,18.475,16.456Z" transform="translate(1.369 14.25)"/></g><path class="a" d="M12.961,6.481v.926h-.926L6.48,1.852.926,7.406H0V6.481L6.48,0h0Z" transform="translate(1068.551 950.503) rotate(90)"/></g></svg>