<svg xmlns="http://www.w3.org/2000/svg" width="43" height="35" viewBox="0 0 43 35">
  <g id="Group_1161" data-name="Group 1161" transform="translate(-90 -70)">
    <g id="Group_1158" data-name="Group 1158" transform="translate(96.144 74.607)">
      <path id="Path_1681" data-name="Path 1681" d="M84.714,122.427h-.756V109.993a4.346,4.346,0,0,0-1.365-3.238,4.55,4.55,0,0,0-3.238-1.36H74.418a.869.869,0,0,0,0,1.7h4.937a2.668,2.668,0,0,1,1.991.869,2.79,2.79,0,0,1,.869,2.043v12.417l-8.632-.056a.53.53,0,0,0-.287.056h-.752v-18.9a4.585,4.585,0,0,0-4.6-4.611H62.948a4.585,4.585,0,0,0-4.6,4.611v18.906H57.155a.869.869,0,1,0,0,1.7H84.636a.869.869,0,0,0,.869-.869.791.791,0,0,0-.8-.869Zm-24.53,0v-18.9a2.9,2.9,0,0,1,2.843-2.9H68a2.912,2.912,0,0,1,2.9,2.9v18.906Z" transform="translate(-56.113 -98.919)" fill="#603d82"/>
      <path id="Path_1682" data-name="Path 1682" d="M255.14,320.325h-4.2a.869.869,0,1,0,0,1.7h4.2a.869.869,0,0,0,.869-.869.834.834,0,0,0-.869-.869Zm0,5.793h-4.2a.869.869,0,1,0,0,1.7h4.2a.869.869,0,0,0,.869-.848.834.834,0,0,0-.869-.869Zm0-11.474h-4.2a.869.869,0,0,0,0,1.7h4.2a.869.869,0,0,0,.869-.869.8.8,0,0,0-.869-.869Zm7.493,13.173h4.2a.869.869,0,1,0,0-1.7h-4.2a.869.869,0,0,0-.869.869.834.834,0,0,0,.869.848Zm0-5.789h4.2a.869.869,0,1,0,0-1.7h-4.2a.869.869,0,0,0-.869.869.839.839,0,0,0,.869.869Z" transform="translate(-243.592 -307.604)" fill="#603d82"/>
    </g>
    <g id="Rectangle_730" data-name="Rectangle 730" transform="translate(90 70)" fill="none" stroke="#603d82" stroke-width="1">
      <rect width="43" height="35" rx="4" stroke="none"/>
      <rect x="0.5" y="0.5" width="42" height="34" rx="3.5" fill="none"/>
    </g>
  </g>
</svg>
