<svg xmlns="http://www.w3.org/2000/svg" width="28" height="23" viewBox="0 0 28 23"><defs><style>.a,.d{fill:none;}.a,.b{stroke:#fff;}.b{fill:#fff;stroke-width:0.25px;}.c{stroke:none;}</style></defs><g transform="translate(-2022 -1056)"><g class="a" transform="translate(2022 1056)"><rect class="c" width="28" height="23" rx="4"/><rect class="d" x="0.5" y="0.5" width="27" height="22" rx="3.5"/></g><g transform="translate(2025 1057)"><path class="b" d="M17.619,20.027H8a2.006,2.006,0,0,1-2-2V6A2.006,2.006,0,0,1,8,4h9.616a2.006,2.006,0,0,1,2,2V18.02a2.006,2.006,0,0,1-2,2.007ZM8,4.8A1.2,1.2,0,0,0,6.8,6V18.02A1.2,1.2,0,0,0,8,19.22h9.616a1.2,1.2,0,0,0,1.2-1.2V6a1.2,1.2,0,0,0-1.2-1.2Z" transform="translate(-1.699 -1.359)"/><path class="b" d="M16.811,16.8H10.4a.4.4,0,0,1,0-.8h6.411a.4.4,0,1,1,0,.8Z" transform="translate(-2.493 -3.743)"/><path class="b" d="M16.811,20.8H10.4a.4.4,0,0,1,0-.8h6.411a.4.4,0,0,1,0,.8Z" transform="translate(-2.493 -4.537)"/><path class="b" d="M16.811,12.8H10.4a.4.4,0,0,1,0-.8h6.411a.4.4,0,0,1,0,.8Z" transform="translate(-2.493 -2.948)"/><path class="b" d="M16.811,8.8H10.4a.4.4,0,0,1,0-.8h6.411a.4.4,0,1,1,0,.8Z" transform="translate(-2.493 -2.154)"/></g></g></svg>