<svg xmlns="http://www.w3.org/2000/svg" width="28" height="23" viewBox="0 0 28 23"><defs><style>.a,.d{fill:none;}.a{stroke:#fff;}.b{fill:#fff;}.c{stroke:none;}</style></defs><g transform="translate(-2144 -1018)"><g class="a" transform="translate(2144 1018)"><rect class="c" width="28" height="23" rx="4"/><rect class="d" x="0.5" y="0.5" width="27" height="22" rx="3.5"/></g><g transform="translate(2148 1023)"><path class="b" d="M121.836,259.116a.874.874,0,0,0-.875-.874h-3.052a.874.874,0,0,0-.874.874v3.052a.874.874,0,0,0,.874.875h3.052a.874.874,0,0,0,.875-.875Z" transform="translate(-117.035 -258.242)"/><path class="b" d="M218.47,259.116a.874.874,0,0,0-.874-.874h-3.052a.874.874,0,0,0-.874.874v3.052a.874.874,0,0,0,.874.875H217.6a.874.874,0,0,0,.874-.875Z" transform="translate(-206.042 -258.242)"/><path class="b" d="M315.1,259.116a.874.874,0,0,0-.874-.874h-3.052a.874.874,0,0,0-.875.874v3.052a.874.874,0,0,0,.875.875h3.052a.874.874,0,0,0,.874-.875Z" transform="translate(-295.043 -258.242)"/><path class="b" d="M121.836,355.749a.874.874,0,0,0-.875-.874h-3.052a.874.874,0,0,0-.874.874V358.8a.874.874,0,0,0,.874.874h3.052a.874.874,0,0,0,.875-.874Z" transform="translate(-117.035 -347.247)"/><path class="b" d="M218.47,355.749a.874.874,0,0,0-.874-.874h-3.052a.874.874,0,0,0-.874.874V358.8a.874.874,0,0,0,.874.874H217.6a.874.874,0,0,0,.874-.874Z" transform="translate(-206.042 -347.247)"/><path class="b" d="M315.1,355.749a.874.874,0,0,0-.874-.874h-3.052a.874.874,0,0,0-.875.874V358.8a.874.874,0,0,0,.875.874h3.052a.874.874,0,0,0,.874-.874Z" transform="translate(-295.043 -347.247)"/></g></g></svg>