<svg xmlns="http://www.w3.org/2000/svg" width="36.8" height="40" viewBox="0 0 36.8 40"><defs><style>.a{fill:#5a5a5a;}.b{fill:#95400a;stroke:#fff;}.c{stroke:none;}.d{fill:none;}</style></defs><g transform="translate(-1165 -24)"><path class="a" d="M84.432,31.832a6.215,6.215,0,0,1-1.889-2.572c-1.627-3.444-1.969-8.3-1.969-11.759,0-.015,0-.03,0-.045A11.349,11.349,0,0,0,73.893,7.164V4.456A4.457,4.457,0,0,0,69.444,0h-.369a4.457,4.457,0,0,0-4.449,4.456V7.163A11.349,11.349,0,0,0,57.945,17.5c0,3.463-.342,8.315-1.969,11.759a6.214,6.214,0,0,1-1.889,2.572,1.139,1.139,0,0,0-.626,1.3,1.192,1.192,0,0,0,1.175.916h8.59a6.034,6.034,0,0,0,12.066,0h8.59a1.192,1.192,0,0,0,1.175-.916A1.139,1.139,0,0,0,84.432,31.832ZM66.97,4.456a2.109,2.109,0,0,1,2.1-2.108h.369a2.109,2.109,0,0,1,2.1,2.108V6.4a11.35,11.35,0,0,0-4.578,0V4.456Zm2.289,33.2a3.7,3.7,0,0,1-3.689-3.608h7.379A3.7,3.7,0,0,1,69.26,37.652ZM73.978,31.7H57.308a12.28,12.28,0,0,0,.614-1.078c1.571-3.1,2.367-7.51,2.367-13.116a8.97,8.97,0,1,1,17.941,0c0,.014,0,.029,0,.043,0,5.584.8,9.981,2.367,13.069a12.3,12.3,0,0,0,.614,1.078Z" transform="translate(1111.566 24)"/><g class="b" transform="translate(1184.815 34.862)"><ellipse class="c" cx="8.492" cy="9.2" rx="8.492" ry="9.2"/><ellipse class="d" cx="8.492" cy="9.2" rx="7.992" ry="8.7"/></g></g></svg>