<svg xmlns="http://www.w3.org/2000/svg" width="60" height="49" viewBox="0 0 60 49">
  <g id="Group_1162" data-name="Group 1162" transform="translate(-159 -70)">
    <g id="Group_1159" data-name="Group 1159" transform="translate(167.535 76.401)">
      <path id="Path_1681" data-name="Path 1681" d="M95.849,131.579H94.8V114.3a6.038,6.038,0,0,0-1.9-4.5,6.322,6.322,0,0,0-4.5-1.89H81.544a1.208,1.208,0,0,0,0,2.367H88.4a3.707,3.707,0,0,1,2.766,1.208,3.876,3.876,0,0,1,1.208,2.838v17.251L80.385,131.5a.736.736,0,0,0-.4.078H78.942V105.325a6.37,6.37,0,0,0-6.395-6.406H65.609a6.37,6.37,0,0,0-6.395,6.406v26.266H57.56a1.208,1.208,0,1,0,0,2.367H95.74a1.208,1.208,0,0,0,1.208-1.208,1.1,1.1,0,0,0-1.105-1.208Zm-34.08,0V105.325a4.028,4.028,0,0,1,3.95-4.027h6.907a4.046,4.046,0,0,1,4.028,4.027v26.266Z" transform="translate(-56.113 -98.919)" fill="#603d82"/>
      <path id="Path_1682" data-name="Path 1682" d="M257.186,322.551h-5.839a1.208,1.208,0,1,0,0,2.367h5.839a1.208,1.208,0,0,0,1.208-1.208,1.159,1.159,0,0,0-1.208-1.208Zm0,8.049h-5.839a1.208,1.208,0,1,0,0,2.361h5.839a1.208,1.208,0,0,0,1.208-1.177,1.159,1.159,0,0,0-1.208-1.208Zm0-15.941h-5.839a1.208,1.208,0,0,0,0,2.367h5.839a1.208,1.208,0,0,0,1.208-1.208,1.117,1.117,0,0,0-1.208-1.208Zm10.41,18.3h5.833a1.208,1.208,0,1,0,0-2.361H267.6a1.208,1.208,0,0,0-1.207,1.208,1.159,1.159,0,0,0,1.207,1.177Zm0-8.043h5.833a1.208,1.208,0,1,0,0-2.367H267.6a1.208,1.208,0,0,0-1.207,1.208,1.165,1.165,0,0,0,1.207,1.208Z" transform="translate(-241.143 -304.877)" fill="#603d82"/>
    </g>
    <g id="Rectangle_730" data-name="Rectangle 730" transform="translate(159 70)" fill="none" stroke="#603d82" stroke-width="1">
      <rect width="60" height="49" rx="4" stroke="none"/>
      <rect x="0.5" y="0.5" width="59" height="48" rx="3.5" fill="none"/>
    </g>
  </g>
</svg>
