<svg xmlns="http://www.w3.org/2000/svg" width="13.602" height="13.398" viewBox="0 0 13.602 13.398">
  <g id="Group_1245" data-name="Group 1245" transform="translate(-1340.522 -1012.725)">
    <path id="plus" d="M3.853,0V3.853H0V6.422H3.853v3.853H6.422V6.422h3.853V3.853H6.422V0Z" transform="translate(1343.849 1012.725)" fill="#603d82"/>
    <g id="Group_1243" data-name="Group 1243" transform="translate(0.815 42.036)">
      <rect id="Rectangle_872" data-name="Rectangle 872" width="5.386" height="7.283" rx="2.693" transform="translate(1340.604 975)" fill="#fff"/>
      <rect id="Rectangle_869" data-name="Rectangle 869" width="6.959" height="4.486" transform="translate(1339.707 979.601)" fill="#e8580c"/>
      <path id="Path_1811" data-name="Path 1811" d="M35.778,14.725a2.385,2.385,0,0,0-1.851-.617,2.462,2.462,0,0,0-2.177,2.462v1.358h-.443a.63.63,0,0,0-.629.629v3.577a.629.629,0,0,0,.629.629h5.7a.63.63,0,0,0,.628-.627V18.559a.63.63,0,0,0-.629-.629h-.442V16.508A2.415,2.415,0,0,0,35.778,14.725Zm-.387,3.2H32.926V16.556A1.26,1.26,0,0,1,34,15.284a1.234,1.234,0,0,1,1.4,1.222Zm-3.264-1.358a2.082,2.082,0,0,1,1.836-2.088,2.016,2.016,0,0,1,1.563.52,2.038,2.038,0,0,1,.665,1.5V17.93h-.422V16.508a1.61,1.61,0,0,0-1.821-1.6,1.638,1.638,0,0,0-1.4,1.645v1.373h-.423Zm5.136,1.986v3.577a.253.253,0,0,1-.253.252h-5.7a.253.253,0,0,1-.252-.252V18.557a.253.253,0,0,1,.252-.252h5.7A.253.253,0,0,1,37.262,18.557Z" transform="translate(1309.029 961.317)" fill="#e8580c"/>
      <path id="Path_1812" data-name="Path 1812" d="M45.96,43.314v.806a.293.293,0,1,0,.587,0v-.806a.678.678,0,1,0-.587,0Z" transform="translate(1296.933 938.641)" fill="#fff"/>
    </g>
  </g>
</svg>
