<svg xmlns="http://www.w3.org/2000/svg" width="12.717" height="12.423" viewBox="0 0 12.717 12.423">
  <g id="Group_1235" data-name="Group 1235" transform="translate(-1203.604 -1082.521)">
    <path id="Path_1783" data-name="Path 1783" d="M37.829,17.269v-.884a.824.824,0,0,1,.7-.825.806.806,0,0,1,.911.8v.912h.453v-.913A1.259,1.259,0,0,0,38.512,15.1a1.282,1.282,0,0,0-1.136,1.289v.875Z" transform="translate(1170.016 1068.69)" fill="#fff"/>
    <path id="Path_1784" data-name="Path 1784" d="M35.158,38h-3.23a.25.25,0,0,1-.25-.25V35.721a.25.25,0,0,1,.25-.25h3.23a.25.25,0,0,1,.25.25v2.026a.25.25,0,0,1-.25.25Z" transform="translate(1175.106 1050.489)" fill="#fff"/>
    <path id="Path_1786" data-name="Path 1786" d="M15.36,12.266h-2.5V4.483a.107.107,0,0,0-.107-.107H3.107A.107.107,0,0,0,3,4.483v2.1a.107.107,0,0,0,.213,0V4.589h9.431V15.138a1.412,1.412,0,0,0,.666,1.2H4.41a1.2,1.2,0,0,1-1.2-1.2V8.457a.107.107,0,0,0-.213,0v6.682a1.412,1.412,0,0,0,1.41,1.41h9.645a1.413,1.413,0,0,0,1.411-1.411V12.373a.107.107,0,0,0-.107-.107Zm-.107,2.872a1.2,1.2,0,1,1-2.4,0V12.479h2.4Z" transform="translate(1200.729 1078.27)" fill="#603d82" stroke="#603d82" stroke-width="0.25"/>
    <path id="Path_1787" data-name="Path 1787" d="M14.552,68.078a.107.107,0,0,0,.107.107h7.166a.107.107,0,1,0,0-.213H14.659A.107.107,0,0,0,14.552,68.078Z" transform="translate(1190.407 1016.191)" fill="#603d82"/>
    <path id="Path_1788" data-name="Path 1788" d="M14.659,78.187h7.166a.107.107,0,1,0,0-.213H14.659a.107.107,0,0,0,0,.213Z" transform="translate(1190.407 1007.255)" fill="#603d82"/>
    <path id="Path_1789" data-name="Path 1789" d="M14.659,88.187h7.166a.107.107,0,1,0,0-.213H14.659a.107.107,0,0,0,0,.213Z" transform="translate(1190.407 998.32)" fill="#603d82"/>
    <path id="Path_1792" data-name="Path 1792" d="M16.408,96.571a.2.2,0,0,0,.115.039c.143,0,.289-.156.412-.286a1.4,1.4,0,0,1,.167-.161.77.77,0,0,1,.06.322.107.107,0,0,0,.107.106h0a.107.107,0,0,0,.106-.107c0-.11-.016-.473-.217-.536-.126-.04-.238.079-.379.23-.066.071-.2.218-.246.222a.985.985,0,0,1,.049-.381c.059-.248.115-.484-.043-.572s-.328.128-.571.465a2.189,2.189,0,0,1-.4.468,1.551,1.551,0,0,1,.044-.454c.059-.328.115-.637-.089-.725-.293-.126-.728.564-.961.986a.107.107,0,1,0,.187.1,2.45,2.45,0,0,1,.688-.895h0c.046.049-.006.337-.034.492-.059.326-.11.608.08.692s.4-.191.657-.546a3.28,3.28,0,0,1,.288-.367,1.9,1.9,0,0,1-.055.3C16.315,96.223,16.258,96.464,16.408,96.571Z" transform="translate(1190.408 991.876)" fill="#603d82"/>
    <path id="Path_1808" data-name="Path 1808" d="M281.574,280.085c0-.071-.174-.123-.188-.19s.127-.184.1-.247-.208-.046-.246-.1.047-.218,0-.267-.209.037-.267,0-.039-.22-.1-.246-.178.115-.247.1-.119-.188-.19-.188-.123.174-.19.188-.184-.127-.247-.1-.046.208-.1.246-.218-.047-.267,0,.037.209,0,.267-.22.039-.246.1.115.178.1.247-.188.119-.188.19.174.123.188.19-.127.184-.1.247.208.046.246.1-.047.218,0,.267.209-.037.267,0,.039.22.1.246.178-.115.247-.1.119.188.19.188.123-.174.19-.188.184.127.247.1.046-.208.1-.246.218.047.267,0-.037-.209,0-.267.22-.039.246-.1-.115-.178-.1-.247S281.574,280.155,281.574,280.085Z" transform="translate(931.224 813.179)" fill="#603d82"/>
    <ellipse id="Ellipse_10" data-name="Ellipse 10" cx="0.427" cy="0.427" rx="0.427" ry="0.427" transform="translate(1211.229 1092.837)" fill="#fff"/>
  </g>
</svg>
