<svg xmlns="http://www.w3.org/2000/svg" xmlns:xlink="http://www.w3.org/1999/xlink" width="814.635" height="541" viewBox="0 0 814.635 541"><defs><style>.a,.b{fill:#603d82;}.a{clip-rule:evenodd;}.c{clip-path:url(#a);}.d{clip-path:url(#b);}.e{clip-path:url(#c);}.f{clip-path:url(#e);}.g{isolation:isolate;}.h{clip-path:url(#f);}.i{clip-path:url(#g);}.j{clip-path:url(#h);}.k{clip-path:url(#i);}.l{clip-path:url(#k);}.m{clip-path:url(#m);}.n{clip-path:url(#o);}.o{clip-path:url(#q);}.p{clip-path:url(#s);}.q{clip-path:url(#u);}.r{clip-path:url(#w);}.s{clip-path:url(#y);}.t{clip-path:url(#aa);}.u{clip-path:url(#ac);}.v{clip-path:url(#ae);}.w{clip-path:url(#ag);}.x{clip-path:url(#ah);}.y{clip-path:url(#ai);}.z{clip-path:url(#aj);}.aa{clip-path:url(#ak);}.ab{clip-path:url(#am);}.ac{clip-path:url(#ao);}.ad{clip-path:url(#ap);}.ae{clip-path:url(#aq);}.af{clip-path:url(#ar);}.ag{clip-path:url(#as);}.ah{clip-path:url(#au);}.ai{clip-path:url(#aw);}.aj{clip-path:url(#ay);}.ak{clip-path:url(#ba);}.al{clip-path:url(#bc);}.am{clip-path:url(#be);}.an{clip-path:url(#bg);}.ao{clip-path:url(#bi);}.ap{clip-path:url(#bk);}.aq{clip-path:url(#bm);}.ar{clip-path:url(#bo);}.as{clip-path:url(#bq);}.at{clip-path:url(#bs);}.au{clip-path:url(#bu);}.av{clip-path:url(#bw);}.aw{clip-path:url(#by);}.ax{clip-path:url(#ca);}.ay{clip-path:url(#cb);}.az{clip-path:url(#cc);}.ba{clip-path:url(#cd);}.bb{clip-path:url(#ce);}.bc{clip-path:url(#cg);}.bd{clip-path:url(#ci);}.be{clip-path:url(#ck);}.bf{clip-path:url(#cm);}.bg{clip-path:url(#co);}.bh{clip-path:url(#cq);}.bi{clip-path:url(#cs);}.bj{clip-path:url(#cu);}.bk{clip-path:url(#cw);}.bl{clip-path:url(#cy);}.bm{clip-path:url(#da);}.bn{clip-path:url(#db);}.bo{clip-path:url(#dc);}.bp{clip-path:url(#dd);}.bq{clip-path:url(#de);}.br{clip-path:url(#dg);}.bs{clip-path:url(#di);}.bt{clip-path:url(#dk);}.bu{clip-path:url(#dm);}.bv{clip-path:url(#do);}.bw{clip-path:url(#dq);}.bx{clip-path:url(#ds);}.by{clip-path:url(#du);}.bz{clip-path:url(#dw);}.ca{clip-path:url(#dy);}.cb{clip-path:url(#ea);}.cc{clip-path:url(#ec);}.cd{clip-path:url(#ee);}.ce{clip-path:url(#eg);}.cf{clip-path:url(#ei);}.cg{clip-path:url(#ek);}.ch{clip-path:url(#em);}.ci{clip-path:url(#eo);}.cj{clip-path:url(#eq);}.ck{clip-path:url(#es);}.cl{clip-path:url(#eu);}.cm{clip-path:url(#ew);}.cn{clip-path:url(#ey);}.co{clip-path:url(#fa);}.cp{clip-path:url(#fc);}.cq{clip-path:url(#fe);}.cr{clip-path:url(#fg);}.cs{clip-path:url(#fi);}.ct{clip-path:url(#fk);}.cu{clip-path:url(#fm);}.cv{clip-path:url(#fo);}.cw{clip-path:url(#fq);}.cx{clip-path:url(#fs);}.cy{clip-path:url(#fu);}.cz{clip-path:url(#fw);}.da{clip-path:url(#fy);}.db{clip-path:url(#ga);}.dc{clip-path:url(#gc);}.dd{clip-path:url(#ge);}.de{clip-path:url(#gg);}.df{clip-path:url(#gi);}.dg{clip-path:url(#gk);}.dh{clip-path:url(#gm);}.di{clip-path:url(#go);}.dj{clip-path:url(#gq);}.dk{clip-path:url(#gs);}.dl{clip-path:url(#gu);}.dm{clip-path:url(#gw);}.dn{clip-path:url(#gy);}.do{clip-path:url(#ha);}.dp{clip-path:url(#hc);}.dq{clip-path:url(#he);}.dr{clip-path:url(#hg);}</style><clipPath id="a"><path class="a" d="M464.01-90.527,279.634-16.5l91.031-150.96ZM278.58-15.161l.161-.032L465.026-89.984l.272-.344-.156-.406-94.311-77.731-.353-.1-.3.207L278.2-15.83l.039.515.34.154Z" transform="translate(-278.201 168.561)"/></clipPath><clipPath id="b"><path class="b" d="M941.878,255.757H-142V-289H941.878Z" transform="translate(142 289)"/></clipPath><clipPath id="c"><path class="a" d="M420.2-151.782,329.44-1.28l14.5-184.6ZM328.858.985l.374-.212,91.976-152.524.043-.359-.24-.271-77.278-34.56-.4.023-.214.344L328.416.51a.438.438,0,0,0,.3.455l.137.021Z" transform="translate(-328.415 186.941)"/></clipPath><clipPath id="e"><path class="b" d="M685.312,252.5H148.99v-541H685.312Z" transform="translate(-148.99 288.5)"/></clipPath><clipPath id="f"><rect class="b" width="586.083" height="790.837"/></clipPath><clipPath id="g"><path class="a" d="M433.843-185.83,419.386-1.8,370.542-186.365ZM419.625,1.258l.036,0a.437.437,0,0,0,.4-.4l14.7-187.083-.117-.334-.321-.143-64.351-.545-.351.169-.077.383L419.195.93a.442.442,0,0,0,.43.329Z" transform="translate(-369.543 187.252)"/></clipPath><clipPath id="h"><path class="b" d="M687.121,253.878H148V-289H687.121Z" transform="translate(-148 289)"/></clipPath><clipPath id="i"><path class="a" d="M377.491-71.662l94.852,36.318,56.677-43.6L377.37-95.2l0-.887L530.2-79.708a.445.445,0,0,1,.38.319.443.443,0,0,1-.156.468L472.682-34.495l-.265.09-.162-.028L377.494-70.719l0-.943" transform="translate(-377.367 96.086)"/></clipPath><clipPath id="k"><path class="a" d="M370.706-218.133l62.536,59.8-62.8-.532Zm63.648,60.693a.439.439,0,0,0,.406-.274l-.105-.483-64.08-61.283-.477-.086a.439.439,0,0,0-.267.4l-.271,60.735a.439.439,0,0,0,.436.443l64.351.545Z" transform="translate(-369.56 219.566)"/></clipPath><clipPath id="m"><path class="a" d="M403.964-138.995,508.375-88.458l.3-278.944L403.5-229.556,403.494-231,508.769-368.976a.439.439,0,0,1,.492-.148.439.439,0,0,1,.3.417l-.306,280.952-.2.374-.233.068-.193-.045L403.967-138.014l0-.981" transform="translate(-403.494 369.149)"/></clipPath><clipPath id="o"><path class="a" d="M488.245-218.651l-.265,59.461-82.549-50.058Zm.175,60.682.214-.056.225-.383.267-60.735-.145-.329-.344-.111-84.589,9.606a.443.443,0,0,0-.381.344.443.443,0,0,0,.2.47l84.319,51.13.231.064Z" transform="translate(-403.657 219.583)"/></clipPath><clipPath id="q"><path class="a" d="M403.841-210.33,424.1-186.245l82.843-9.409L403.66-245.646l0-.982L508.7-195.785a.441.441,0,0,1,.242.471.438.438,0,0,1-.385.364l-84.588,9.606-.047,0-.34-.156-19.733-23.455-.007-1.379" transform="translate(-403.656 246.628)"/></clipPath><clipPath id="s"><path class="a" d="M328.576,78.915l-97.915,28.579-3.2.017,99.809-29.133L150.219-12.76l42.775,120.446-.934.006L149.015-13.515a.44.44,0,0,1,.126-.477l.494-.062L328.655,78.1a.446.446,0,0,1,.237.436.441.441,0,0,1-.316.381" transform="translate(-148.99 14.054)"/></clipPath><clipPath id="u"><path class="a" d="M381.8,107.7,338.917-13.044,222.818,43.3l143.017,64.484-2.119.011L221.595,43.712a.444.444,0,0,1-.011-.8L338.977-14.051l.359-.011.248.259,43.145,121.5-.932.006" transform="translate(-221.337 14.062)"/></clipPath><clipPath id="w"><path class="a" d="M300.418-106.771l-48.861,36.8-28.7-8.577ZM251.646-69.04l.265-.088,51.4-38.713a.441.441,0,0,0,.122-.564.441.441,0,0,0-.539-.2L221.3-78.917a.442.442,0,0,0-.291.426.441.441,0,0,0,.314.41l30.193,9.022.128.019Z" transform="translate(-221.011 108.635)"/></clipPath><clipPath id="y"><path class="a" d="M327.49-91.887,247.509-62.78l-25.329-63.263ZM247.259-61.779l.15-.026L328.995-91.5a.442.442,0,0,0,.291-.421.443.443,0,0,0-.3-.413L221.556-127.172l-.456.116-.088.466,25.836,64.535a.443.443,0,0,0,.411.276Z" transform="translate(-221.011 127.172)"/></clipPath><clipPath id="aa"><path class="a" d="M274.488-83.042l7.4,134.106L245.34-91.752Zm8.091,139.014.064-.006a.442.442,0,0,0,.374-.46L275.35-83.4a.44.44,0,0,0-.314-.4l-30.191-9.02-.43.1-.124.426L282.15,55.64a.442.442,0,0,0,.428.332Z" transform="translate(-244.292 92.819)"/></clipPath><clipPath id="ac"><path class="a" d="M476.385-62.634,267.5-52.532l183.446-73.653ZM264.9-51.525h.019L477.046-61.783l.348-.2.039-.4L451.6-126.923l-.235-.24-.338,0L264.738-52.374a.442.442,0,0,0-.267.5.442.442,0,0,0,.434.346Z" transform="translate(-264.461 127.167)"/></clipPath><clipPath id="ae"><path class="a" d="M382.547-215.374,361.038-48.9l-93.272-76.875ZM361.375-47.609l.162-.03.272-.353,21.749-168.334a.435.435,0,0,0-.218-.438l-.49.034-116.058,90.6-.171.342.16.346,94.311,77.729.284.1Z" transform="translate(-266.621 216.764)"/></clipPath><clipPath id="ag"><path class="b" d="M524.542-62.323H266.622V-288.5h257.92Z" transform="translate(-266.622 288.5)"/></clipPath><clipPath id="ah"><rect class="b" width="259.229" height="379.451"/></clipPath><clipPath id="ai"><path class="a" d="M382.276-195.056,267.618-105.547l14.776-134.324ZM267.067-104.118l.267-.094,116.061-90.6.165-.4-.255-.349L282.2-240.923l-.4.019-.222.334L266.624-104.606a.449.449,0,0,0,.225.434l.218.054Z" transform="translate(-266.622 240.923)"/></clipPath><clipPath id="aj"><path class="b" d="M525.229-61.7H266V-289H525.229Z" transform="translate(-266 289)"/></clipPath><clipPath id="ak"><path class="a" d="M498.858-327.9l-47.9,198.921L296.065-368.072ZM451.145-127.436l.071-.008a.436.436,0,0,0,.353-.331l48.254-200.363-.058-.342-.286-.194L295.215-369.141a.439.439,0,0,0-.449.186l-.006.487L450.771-127.639l.374.2Z" transform="translate(-294.76 369.149)"/></clipPath><clipPath id="am"><path class="a" d="M412.522-239.2,397.78-105.189l-76.17-34.064ZM398.154-104.1l.216-.056.218-.334,14.958-135.964a.438.438,0,0,0-.257-.451.441.441,0,0,0-.505.105L320.547-139.4l-.105.387.25.312,77.28,34.56.182.038Z" transform="translate(-320.441 240.943)"/></clipPath><clipPath id="ao"><path class="b" d="M594.558,252.5H244.291v-541H594.558Z" transform="translate(-244.291 288.5)"/></clipPath><clipPath id="ap"><rect class="b" width="351.274" height="747.632"/></clipPath><clipPath id="aq"><path class="a" d="M475.9-239.71l-90.942,99.98-63.179-60.421ZM384.986-138.659H385l.31-.143,92.237-101.4.051-.524a.441.441,0,0,0-.486-.2L320.791-200.809l-.316.317.122.428,64.08,61.281.308.122Z" transform="translate(-320.475 240.944)"/></clipPath><clipPath id="ar"><path class="b" d="M595.274,253.878H244V-289H595.274Z" transform="translate(-244 289)"/></clipPath><clipPath id="as"><path class="a" d="M476.512-128.152,321.339-88.325l.055-50.32.082-75.841.166-152.734ZM320.9-87.314l.107-.015,156.317-40.12.3-.269-.039-.4L321.572-368.948a.433.433,0,0,0-.492-.182.439.439,0,0,0-.317.421l-.3,280.954.169.348.272.094Z" transform="translate(-320.458 369.149)"/></clipPath><clipPath id="au"><path class="a" d="M405.061-91.679,442.589,54.967,245.859,18.288ZM443.19,55.969l.319-.141.107-.41L405.758-92.51l-.272-.3-.4.049L244.488,18.164a.44.44,0,0,0,.171.795l198.449,37,.083.008Z" transform="translate(-244.298 92.814)"/></clipPath><clipPath id="aw"><path class="a" d="M441.728,3.852,325.849,60.085,245.829-32.673ZM325.736,61.069l.19-.043L443.317,4.061a.44.44,0,0,0-.113-.83l-198.447-37a.443.443,0,0,0-.466.214l.051.507L325.4,60.915l.336.154Z" transform="translate(-244.291 33.777)"/></clipPath><clipPath id="ay"><path class="a" d="M475.436-91.873,316.527,17.892,265.539-81.723ZM316.367,18.98l.246-.077,160.6-110.928a.442.442,0,0,0,.165-.505.458.458,0,0,0-.438-.3L264.814-82.571l-.361.22-.009.423L315.973,18.741l.284.227.111.011Z" transform="translate(-264.444 92.829)"/></clipPath><clipPath id="ba"><path class="a" d="M387.539,60.428l-53.9,19.125L308.061-31.7ZM333.321,80.574l.145-.026,54.975-19.5.278-.3-.092-.4L307.565-33.624a.439.439,0,0,0-.532-.105.439.439,0,0,0-.231.49L332.891,80.232l.216.287.214.054Z" transform="translate(-306.792 33.776)"/></clipPath><clipPath id="bc"><path class="a" d="M441.783-32.486,467.559,79.633,337.473,68.208ZM468.125,80.566l.331-.152.1-.387L442.467-33.444l-.3-.323-.43.105L336.164,68.247l-.109.464a.437.437,0,0,0,.378.291L468.085,80.564l.039,0Z" transform="translate(-336.055 33.767)"/></clipPath><clipPath id="be"><path class="a" d="M407.97-86.259l50.662,98.977-107.437-55.3ZM459.652,14.177l.31-.128a.448.448,0,0,0,.081-.513L408.512-87.133l-.295-.229-.366.081L350.107-42.857l-.171.389.237.353L459.447,14.13l.2.047Z" transform="translate(-349.936 87.362)"/></clipPath><clipPath id="bg"><path class="a" d="M500.469-12.043,395.962,88.844,351.029-56.7ZM395.753,90.1l.3-.126L501.626-11.934l.12-.421-.3-.317L350.49-57.78l-.44.111-.107.441L395.331,89.789l.312.295.111.015Z" transform="translate(-349.943 57.78)"/></clipPath><clipPath id="bi"><path class="a" d="M392.008-62.816,496.9-8.823,352-52.125ZM501.335-6.6a.44.44,0,0,0,.406-.276.442.442,0,0,0-.207-.556L392.262-63.678l-.317-.032-41.68,11.136a.441.441,0,0,0-.329.419.441.441,0,0,0,.316.428L501.206-6.618l.13.017Z" transform="translate(-349.936 63.71)"/></clipPath><clipPath id="bk"><path class="a" d="M29.323-41.845,151.805,29.879,3.994,3.235ZM154.172,31.194a.441.441,0,0,0,.222-.821L29.381-42.831l-.336-.045-.271.209L2.923,3.344l-.015.4.321.244L154.093,31.187l.079.008Z" transform="translate(-2.908 42.876)"/></clipPath><clipPath id="bm"><path class="a" d="M146.355-34.957,121.113,9.965,71-49.932Zm-25.17,46.135.039,0,.344-.224,25.852-46.009.017-.4-.314-.248L69.943-51.04a.44.44,0,0,0-.464.207l.041.509,51.325,61.347.34.156Z" transform="translate(-69.479 51.048)"/></clipPath><clipPath id="bo"><path class="a" d="M224.17-138.858l.107-.015a.441.441,0,0,0,.317-.537l-24.245-93.381a.437.437,0,0,0-.537-.316.44.44,0,0,0-.316.537l24.245,93.381a.441.441,0,0,0,.428.331" transform="translate(-199.482 233.122)"/></clipPath><clipPath id="bq"><path class="a" d="M301.49-232.136l23.887,92L201.121-201.921Zm24.559,93.268.276-.1.148-.453L302.228-232.8l-.21-.272-.342-.038L199.8-202.443a.436.436,0,0,0-.312.383.437.437,0,0,0,.242.432L325.85-138.915l.2.047Z" transform="translate(-199.489 233.111)"/></clipPath><clipPath id="bs"><path class="a" d="M346.991-181.9l-35.434,117-110.448-12.8ZM311.875-63.975a.438.438,0,0,0,.419-.312L348.211-182.88a.438.438,0,0,0-.165-.485l-.513,0L199.667-77.746a.44.44,0,0,0-.171.468.441.441,0,0,0,.376.329L311.821-63.977l.054,0Z" transform="translate(-199.482 183.367)"/></clipPath><clipPath id="bu"><path class="a" d="M346.936-153.6,200.491-48.99l21.539-166.716ZM199.925-47.6l.256-.081L348.046-153.3l.184-.393-.244-.361L221.869-216.771l-.4.006-.229.332L199.486-48.1a.442.442,0,0,0,.212.434l.227.062Z" transform="translate(-199.482 216.771)"/></clipPath><clipPath id="bw"><path class="a" d="M182.855-118.917l73.037,78.838-77.331-58.08Zm76.69,82.576.325-.145a.439.439,0,0,0,0-.6l-76.946-83.064-.441-.124-.314.336L177.64-98.064l.167.441,81.471,61.193.267.088Z" transform="translate(-177.64 120.269)"/></clipPath><clipPath id="by"><path class="a" d="M229.476-107.684l79.756,59.9-130.071-22ZM310.949-46.6a.441.441,0,0,0,.4-.267.443.443,0,0,0-.139-.528l-81.473-61.191h-.53l-51.4,38.713a.439.439,0,0,0-.16.456.434.434,0,0,0,.353.329L310.874-46.61l.075.008Z" transform="translate(-177.64 108.588)"/></clipPath><clipPath id="ca"><path class="b" d="M743.087,163.556H83.223V-187.252H743.087Z" transform="translate(-83.223 187.252)"/></clipPath><clipPath id="cb"><rect class="b" width="708.184" height="420.778"/></clipPath><clipPath id="cc"><path class="a" d="M310.005-64.824,186.143,50.355,178.559-87.061ZM185.758,51.76l.3-.118,125.2-116.428.122-.449-.348-.308-132.87-22.48-.366.105-.147.353,7.666,138.907a.44.44,0,0,0,.274.385l.167.032Z" transform="translate(-177.65 88.023)"/></clipPath><clipPath id="cd"><path class="b" d="M744.222,165.153H83V-188H744.222Z" transform="translate(-83 188)"/></clipPath><clipPath id="ce"><path class="a" d="M377.609-96.147,530.1-.166,480.861-186.223,377.373-142.506l-.006-.954,103.62-43.774.364.011.233.284L531.236.69a.442.442,0,0,1-.163.468l-.259.085-.239-.068L377.615-95.1l-.006-1.044" transform="translate(-377.367 187.234)"/></clipPath><clipPath id="cg"><path class="a" d="M377.776-58.612,528.722-42.437,377.372-137.7l-.006-1.046L530.8-42.168a.443.443,0,0,1,.182.517.442.442,0,0,1-.415.3l-.049,0L377.78-57.725l0-.887" transform="translate(-377.366 138.744)"/></clipPath><clipPath id="ci"><path class="a" d="M403.991-143.444,505.25-186.221,403.805-180.24l-.006-.883,103.957-6.128a.415.415,0,0,1,.455.338.44.44,0,0,1-.257.507L404-142.49l-.006-.954" transform="translate(-403.8 187.252)"/></clipPath><clipPath id="ck"><path class="a" d="M184.951-50,235.016,9.837,85.995-50.349Zm51.536,61.347.355-.182-.019-.541L185.5-50.725l-.336-.156L83.707-51.238h0a.442.442,0,0,0-.43.357.441.441,0,0,0,.267.492l152.782,61.7.165.03Z" transform="translate(-83.265 51.238)"/></clipPath><clipPath id="cm"><path class="a" d="M235.576,11.018,113.19,110.329,84.232-50.1ZM112.89,111.582l.276-.1L236.713,11.233l.158-.408-.271-.344L83.82-51.221l-.443.066-.154.421L112.454,111.22l.28.334.156.028Z" transform="translate(-83.223 51.221)"/></clipPath><clipPath id="co"><path class="a" d="M111.863-74.8,234.5-29.086l-98.717-.346ZM236.973-28.2a.443.443,0,0,0,.432-.363.441.441,0,0,0-.28-.492L111.089-76.032a.446.446,0,0,0-.487.122l-.058.5L135.13-28.787l.389.235,101.453.357Z" transform="translate(-110.544 76.059)"/></clipPath><clipPath id="cq"><path class="a" d="M298.892-50.175l28.972,160.512L150.437,19.005Zm29.565,161.753.261-.086.171-.432L299.657-50.895l-.231-.312-.389-.009L149.25,18.584l-.255.391.239.4,179.02,92.154.2.049Z" transform="translate(-148.994 51.216)"/></clipPath><clipPath id="cs"><path class="a" d="M314.189-29.2,167.35,39.226,290.088-74.906ZM165.008,41.247l.184-.041L314.979-28.6l.233-.259-.028-.346L290.6-75.827l-.316-.229-.376.111L164.705,40.483a.439.439,0,0,0-.066.569l.368.2Z" transform="translate(-164.564 76.056)"/></clipPath><clipPath id="cu"><path class="a" d="M430.554-23.819l51.863-19.318L430.3-73.046l-.006-1.02,53.373,30.632a.44.44,0,0,1,.222.419.445.445,0,0,1-.287.378L430.557-22.88l0-.939" transform="translate(-430.296 74.066)"/></clipPath><clipPath id="cw"><path class="a" d="M314.628-200.4l.364-.2a.44.44,0,0,0-.122-.612l-101.8-68.08a.44.44,0,0,0-.611.122.439.439,0,0,0,.12.611l101.8,68.08.246.075" transform="translate(-212.388 269.364)"/></clipPath><clipPath id="cy"><path class="a" d="M313.682-201.02l-100.41,30.227.075-97.329Zm-100.85,31.262.124-.019,101.875-30.668a.44.44,0,0,0,.308-.359l-.192-.43-101.8-68.08-.451-.022-.235.389-.075,98.748.177.353.265.088Z" transform="translate(-212.391 269.336)"/></clipPath><clipPath id="da"><path class="b" d="M582.014,252.5H266.579v-541H582.014Z" transform="translate(-266.579 288.5)"/></clipPath><clipPath id="db"><rect class="b" width="362.545" height="717.576"/></clipPath><clipPath id="dc"><path class="a" d="M367.758-268.215l-.075,97.335-99.655-44.713Zm.366,98.456.239-.071.2-.37.077-98.748-.212-.378-.434-.011L266.815-215.952l-.235.406.261.387,101.1,45.361.182.039Z" transform="translate(-266.58 269.336)"/></clipPath><clipPath id="dd"><path class="b" d="M583.462,253.878H266V-289H583.462Z" transform="translate(-266 289)"/></clipPath><clipPath id="de"><path class="a" d="M367.641-200.4l-99.976,52.751,47.679-197.985ZM267.011-146.36l.2-.053L368.39-199.8a.44.44,0,0,0,.21-.539L315.677-347.315a.427.427,0,0,0-.438-.289.438.438,0,0,0-.406.336L266.579-146.9l.158.453.274.092Z" transform="translate(-266.579 347.608)"/></clipPath><clipPath id="dg"><path class="a" d="M406.2,22.992,503.385,88.6,458.615-56.415,406.142,11.107l-.007-1.428,52.306-67.3.426-.162.342.3L504.6,89.533a.443.443,0,0,1-.158.485l-.261.086-.248-.075-97.722-65.97-.006-1.067" transform="translate(-406.135 57.786)"/></clipPath><clipPath id="di"><path class="a" d="M406.595,75.657,503.041,51.7l-96.9-65.416-.006-1.067,98.22,66.3a.442.442,0,0,1-.139.795L406.6,76.564l-.006-.907" transform="translate(-406.134 14.784)"/></clipPath><clipPath id="dk"><path class="a" d="M430.586,9.683,481.94-56.394,430.346-37.178l0-.939,52.744-19.645a.439.439,0,0,1,.509.152l-.006.53-53,68.19-.008-1.428" transform="translate(-430.342 57.79)"/></clipPath><clipPath id="dm"><path class="a" d="M331.34-171.437a5.839,5.839,0,0,1,5.87,5.808,5.838,5.838,0,0,1-5.81,5.868,5.841,5.841,0,0,1-5.87-5.808,5.839,5.839,0,0,1,5.81-5.868" transform="translate(-325.53 171.437)"/></clipPath><clipPath id="do"><path class="a" d="M332.154-172.376a7.612,7.612,0,0,1,7.644,7.563,7.613,7.613,0,0,1-7.565,7.642,7.613,7.613,0,0,1-7.642-7.565A7.61,7.61,0,0,1,332.154-172.376Zm.009,1.764a5.839,5.839,0,0,0-5.81,5.868,5.841,5.841,0,0,0,5.87,5.808,5.838,5.838,0,0,0,5.81-5.868,5.839,5.839,0,0,0-5.87-5.808Z" transform="translate(-324.591 172.376)"/></clipPath><clipPath id="dq"><path class="a" d="M368.447-185.546a2.5,2.5,0,0,1,2.487-2.513,2.5,2.5,0,0,1,2.513,2.489,2.5,2.5,0,0,1-2.487,2.513,2.5,2.5,0,0,1-2.513-2.489" transform="translate(-368.447 188.059)"/></clipPath><clipPath id="ds"><path class="a" d="M371.747-189a4.271,4.271,0,0,1,4.289,4.242,4.268,4.268,0,0,1-4.244,4.285,4.266,4.266,0,0,1-4.285-4.242A4.267,4.267,0,0,1,371.747-189Zm.009,1.762a2.5,2.5,0,0,0-2.487,2.513,2.5,2.5,0,0,0,2.513,2.489,2.5,2.5,0,0,0,2.487-2.513,2.5,2.5,0,0,0-2.513-2.489Z" transform="translate(-367.507 188.997)"/></clipPath><clipPath id="du"><path class="a" d="M406.612-210.905a5.756,5.756,0,0,1-5.784-5.726,5.755,5.755,0,0,1,5.724-5.782,5.751,5.751,0,0,1,5.784,5.724,5.753,5.753,0,0,1-5.724,5.784" transform="translate(-400.828 222.413)"/></clipPath><clipPath id="dw"><path class="a" d="M407.367-223.352a7.528,7.528,0,0,1,7.555,7.478,7.526,7.526,0,0,1-7.48,7.555,7.524,7.524,0,0,1-7.553-7.478A7.526,7.526,0,0,1,407.367-223.352Zm.008,1.764a5.755,5.755,0,0,0-5.724,5.782,5.756,5.756,0,0,0,5.784,5.726,5.753,5.753,0,0,0,5.724-5.784,5.751,5.751,0,0,0-5.784-5.724Z" transform="translate(-399.889 223.352)"/></clipPath><clipPath id="dy"><path class="a" d="M272.309-90.191a5.2,5.2,0,0,1-5.171,5.226,5.2,5.2,0,0,1-5.226-5.173,5.2,5.2,0,0,1,5.173-5.224A5.2,5.2,0,0,1,272.309-90.191Z" transform="translate(-261.912 95.362)"/></clipPath><clipPath id="ea"><path class="a" d="M267.9-96.3a6.972,6.972,0,0,1,7,6.928,6.968,6.968,0,0,1-6.926,7,6.968,6.968,0,0,1-7-6.926A6.97,6.97,0,0,1,267.9-96.3Zm.009,1.764a5.2,5.2,0,0,0-5.173,5.224,5.2,5.2,0,0,0,5.226,5.173,5.2,5.2,0,0,0,5.171-5.226,5.2,5.2,0,0,0-5.224-5.171Z" transform="translate(-260.973 96.301)"/></clipPath><clipPath id="ec"><path class="a" d="M351.67-35.268a3.242,3.242,0,0,1,3.257,3.225,3.241,3.241,0,0,1-3.225,3.257,3.241,3.241,0,0,1-3.257-3.225,3.242,3.242,0,0,1,3.225-3.257" transform="translate(-348.445 35.268)"/></clipPath><clipPath id="ee"><path class="a" d="M352.484-36.207a5.013,5.013,0,0,1,5.031,4.98,5.014,5.014,0,0,1-4.98,5.031,5.011,5.011,0,0,1-5.029-4.98A5.01,5.01,0,0,1,352.484-36.207Zm.009,1.764a3.242,3.242,0,0,0-3.225,3.257,3.241,3.241,0,0,0,3.257,3.225,3.242,3.242,0,0,0,3.225-3.257,3.242,3.242,0,0,0-3.257-3.225Z" transform="translate(-347.506 36.207)"/></clipPath><clipPath id="eg"><path class="a" d="M411.243-66.824a6.276,6.276,0,0,1,6.308,6.242,6.275,6.275,0,0,1-6.244,6.306A6.275,6.275,0,0,1,405-60.518a6.275,6.275,0,0,1,6.242-6.306" transform="translate(-405.001 66.824)"/></clipPath><clipPath id="ei"><path class="a" d="M412.06-67.763a8.048,8.048,0,0,1,8.08,8,8.046,8.046,0,0,1-8,8.079,8.048,8.048,0,0,1-8.079-8A8.051,8.051,0,0,1,412.06-67.763ZM412.069-66a6.275,6.275,0,0,0-6.242,6.306,6.275,6.275,0,0,0,6.306,6.242,6.275,6.275,0,0,0,6.244-6.306A6.276,6.276,0,0,0,412.069-66Z" transform="translate(-404.063 67.763)"/></clipPath><clipPath id="ek"><path class="a" d="M4.337-5.053A2.58,2.58,0,0,1,6.931-2.487,2.581,2.581,0,0,1,4.363.107,2.58,2.58,0,0,1,1.769-2.459,2.581,2.581,0,0,1,4.337-5.053" transform="translate(-1.769 5.053)"/></clipPath><clipPath id="em"><path class="a" d="M5.153-5.992A4.348,4.348,0,0,1,9.519-1.67,4.349,4.349,0,0,1,5.2,2.7,4.351,4.351,0,0,1,.831-1.626,4.351,4.351,0,0,1,5.153-5.992Zm.009,1.764A2.581,2.581,0,0,0,2.595-1.634,2.58,2.58,0,0,0,5.189.932,2.581,2.581,0,0,0,7.757-1.662,2.58,2.58,0,0,0,5.163-4.228Z" transform="translate(-0.831 5.992)"/></clipPath><clipPath id="eo"><path class="a" d="M71.622-44.872a4.175,4.175,0,0,1,4.195,4.153,4.172,4.172,0,0,1-4.152,4.195,4.174,4.174,0,0,1-4.195-4.151,4.176,4.176,0,0,1,4.151-4.2" transform="translate(-67.471 44.872)"/></clipPath><clipPath id="eq"><path class="a" d="M72.44-45.81A5.943,5.943,0,0,1,78.406-39.9,5.946,5.946,0,0,1,72.5-33.936a5.945,5.945,0,0,1-5.968-5.908A5.944,5.944,0,0,1,72.44-45.81Zm.008,1.762a4.176,4.176,0,0,0-4.151,4.2A4.174,4.174,0,0,0,72.491-35.7a4.172,4.172,0,0,0,4.151-4.195,4.175,4.175,0,0,0-4.195-4.153Z" transform="translate(-66.532 45.81)"/></clipPath><clipPath id="es"><path class="a" d="M200.883-184.517a2.519,2.519,0,0,1,2.532,2.506,2.521,2.521,0,0,1-2.506,2.534,2.523,2.523,0,0,1-2.534-2.508,2.52,2.52,0,0,1,2.508-2.532" transform="translate(-198.375 184.517)"/></clipPath><clipPath id="eu"><path class="a" d="M201.7-185.456a4.288,4.288,0,0,1,4.3,4.262,4.285,4.285,0,0,1-4.26,4.3,4.289,4.289,0,0,1-4.305-4.26A4.291,4.291,0,0,1,201.7-185.456Zm.009,1.764a2.52,2.52,0,0,0-2.508,2.532,2.523,2.523,0,0,0,2.534,2.508,2.521,2.521,0,0,0,2.506-2.534,2.519,2.519,0,0,0-2.532-2.506Z" transform="translate(-197.437 185.456)"/></clipPath><clipPath id="ew"><path class="a" d="M281.089-130.007a5.744,5.744,0,0,1,5.774,5.714,5.744,5.744,0,0,1-5.714,5.773,5.744,5.744,0,0,1-5.774-5.714,5.743,5.743,0,0,1,5.714-5.773" transform="translate(-275.375 130.007)"/></clipPath><clipPath id="ey"><path class="a" d="M281.9-130.946a7.517,7.517,0,0,1,7.546,7.469,7.514,7.514,0,0,1-7.469,7.546,7.517,7.517,0,0,1-7.544-7.469A7.514,7.514,0,0,1,281.9-130.946Zm.009,1.764a5.743,5.743,0,0,0-5.714,5.773,5.744,5.744,0,0,0,5.774,5.714,5.744,5.744,0,0,0,5.714-5.773,5.744,5.744,0,0,0-5.774-5.714Z" transform="translate(-274.437 130.946)"/></clipPath><clipPath id="fa"><path class="a" d="M220.191-115.839a2.864,2.864,0,0,1-2.88-2.85,2.866,2.866,0,0,1,2.852-2.88,2.863,2.863,0,0,1,2.88,2.85,2.864,2.864,0,0,1-2.852,2.88" transform="translate(-217.311 121.568)"/></clipPath><clipPath id="fc"><path class="a" d="M220.977-122.507a4.633,4.633,0,0,1,4.651,4.6,4.633,4.633,0,0,1-4.6,4.653,4.634,4.634,0,0,1-4.651-4.6A4.633,4.633,0,0,1,220.977-122.507Zm.009,1.764a2.864,2.864,0,0,0-2.852,2.88,2.864,2.864,0,0,0,2.88,2.85,2.864,2.864,0,0,0,2.852-2.88,2.863,2.863,0,0,0-2.88-2.85Z" transform="translate(-216.373 122.507)"/></clipPath><clipPath id="fe"><path class="a" d="M222.745-110.125A3.238,3.238,0,0,1,226-106.9a3.239,3.239,0,0,1-3.222,3.255,3.239,3.239,0,0,1-3.255-3.223,3.239,3.239,0,0,1,3.223-3.255" transform="translate(-219.522 110.125)"/></clipPath><clipPath id="fg"><path class="a" d="M223.561-111.063a5.007,5.007,0,0,1,5.027,4.976,5.007,5.007,0,0,1-4.976,5.027,5.007,5.007,0,0,1-5.029-4.976A5.007,5.007,0,0,1,223.561-111.063Zm.009,1.762a3.239,3.239,0,0,0-3.223,3.255,3.239,3.239,0,0,0,3.255,3.223,3.239,3.239,0,0,0,3.222-3.255,3.239,3.239,0,0,0-3.253-3.223Z" transform="translate(-218.583 111.063)"/></clipPath><clipPath id="fi"><path class="a" d="M249.78-89.142a2.537,2.537,0,0,1,2.549,2.523,2.536,2.536,0,0,1-2.523,2.549,2.537,2.537,0,0,1-2.549-2.523,2.539,2.539,0,0,1,2.523-2.549" transform="translate(-247.257 89.142)"/></clipPath><clipPath id="fk"><path class="a" d="M250.594-90.08a4.3,4.3,0,0,1,4.32,4.275,4.3,4.3,0,0,1-4.275,4.321,4.3,4.3,0,0,1-4.321-4.275A4.3,4.3,0,0,1,250.594-90.08Zm.009,1.762a2.539,2.539,0,0,0-2.523,2.549,2.537,2.537,0,0,0,2.549,2.523,2.537,2.537,0,0,0,2.523-2.549,2.537,2.537,0,0,0-2.549-2.523Z" transform="translate(-246.319 90.08)"/></clipPath><clipPath id="fm"><path class="a" d="M379.639-89.48a4.408,4.408,0,0,1,4.431,4.384,4.409,4.409,0,0,1-4.384,4.431,4.408,4.408,0,0,1-4.431-4.386,4.406,4.406,0,0,1,4.384-4.429" transform="translate(-375.255 89.48)"/></clipPath><clipPath id="fo"><path class="a" d="M380.453-90.419a6.181,6.181,0,0,1,6.2,6.141,6.177,6.177,0,0,1-6.139,6.2,6.177,6.177,0,0,1-6.2-6.139A6.176,6.176,0,0,1,380.453-90.419Zm.009,1.764a4.406,4.406,0,0,0-4.384,4.429,4.408,4.408,0,0,0,4.431,4.386,4.409,4.409,0,0,0,4.384-4.431,4.408,4.408,0,0,0-4.431-4.384Z" transform="translate(-374.316 90.419)"/></clipPath><clipPath id="fq"><path class="a" d="M406.379-189.715a5.065,5.065,0,0,1,5.092,5.04,5.069,5.069,0,0,1-5.042,5.094,5.069,5.069,0,0,1-5.093-5.042,5.066,5.066,0,0,1,5.042-5.093" transform="translate(-401.337 189.715)"/></clipPath><clipPath id="fs"><path class="a" d="M407.193-190.654a6.841,6.841,0,0,1,6.866,6.8,6.838,6.838,0,0,1-6.8,6.864,6.836,6.836,0,0,1-6.864-6.794A6.838,6.838,0,0,1,407.193-190.654Zm.009,1.764a5.066,5.066,0,0,0-5.042,5.093,5.069,5.069,0,0,0,5.093,5.042,5.07,5.07,0,0,0,5.042-5.094,5.065,5.065,0,0,0-5.093-5.04Z" transform="translate(-400.398 190.654)"/></clipPath><clipPath id="fu"><path class="a" d="M86-21.081a5.493,5.493,0,0,1,5.523,5.466,5.5,5.5,0,0,1-5.466,5.523,5.5,5.5,0,0,1-5.523-5.466A5.5,5.5,0,0,1,86-21.081" transform="translate(-80.53 21.081)"/></clipPath><clipPath id="fw"><path class="a" d="M86.81-22.02a7.267,7.267,0,0,1,7.3,7.221,7.27,7.27,0,0,1-7.221,7.3,7.267,7.267,0,0,1-7.294-7.223A7.265,7.265,0,0,1,86.81-22.02Zm.009,1.764a5.5,5.5,0,0,0-5.466,5.523,5.5,5.5,0,0,0,5.523,5.466,5.5,5.5,0,0,0,5.466-5.523,5.493,5.493,0,0,0-5.523-5.466Z" transform="translate(-79.591 22.02)"/></clipPath><clipPath id="fy"><path class="a" d="M109.1-49.318a3.164,3.164,0,0,1,3.146-3.18,3.164,3.164,0,0,1,3.18,3.148,3.164,3.164,0,0,1-3.148,3.18,3.165,3.165,0,0,1-3.178-3.148" transform="translate(-109.095 52.498)"/></clipPath><clipPath id="ga"><path class="a" d="M113.059-53.437a4.935,4.935,0,0,1,4.952,4.9,4.931,4.931,0,0,1-4.9,4.952,4.932,4.932,0,0,1-4.952-4.9A4.934,4.934,0,0,1,113.059-53.437Zm.008,1.764a3.164,3.164,0,0,0-3.146,3.18,3.165,3.165,0,0,0,3.178,3.148,3.164,3.164,0,0,0,3.148-3.18,3.163,3.163,0,0,0-3.18-3.148Z" transform="translate(-108.156 53.437)"/></clipPath><clipPath id="gc"><path class="a" d="M167.192-53.771a5.2,5.2,0,0,1,5.224,5.171,5.2,5.2,0,0,1-5.171,5.226,5.2,5.2,0,0,1-5.226-5.172,5.2,5.2,0,0,1,5.173-5.226" transform="translate(-162.019 53.771)"/></clipPath><clipPath id="ge"><path class="a" d="M168.007-54.709a6.967,6.967,0,0,1,7,6.926,6.97,6.97,0,0,1-6.926,7,6.969,6.969,0,0,1-7-6.926A6.969,6.969,0,0,1,168.007-54.709Zm.009,1.762a5.2,5.2,0,0,0-5.173,5.226,5.2,5.2,0,0,0,5.226,5.172,5.2,5.2,0,0,0,5.171-5.226,5.2,5.2,0,0,0-5.224-5.171Z" transform="translate(-161.081 54.709)"/></clipPath><clipPath id="gg"><path class="a" d="M246.623-16.259a4.535,4.535,0,0,1,4.557,4.512,4.534,4.534,0,0,1-4.51,4.557,4.535,4.535,0,0,1-4.557-4.512,4.534,4.534,0,0,1,4.51-4.557" transform="translate(-242.113 16.259)"/></clipPath><clipPath id="gi"><path class="a" d="M247.438-17.2a6.308,6.308,0,0,1,6.33,6.267A6.308,6.308,0,0,1,247.5-4.6a6.3,6.3,0,0,1-6.329-6.265A6.3,6.3,0,0,1,247.438-17.2Zm.008,1.764a4.534,4.534,0,0,0-4.51,4.557,4.535,4.535,0,0,0,4.557,4.512A4.534,4.534,0,0,0,252-10.922a4.533,4.533,0,0,0-4.557-4.512Z" transform="translate(-241.173 17.198)"/></clipPath><clipPath id="gk"><path class="a" d="M179.413-77.6a3.329,3.329,0,0,1,3.346,3.312,3.328,3.328,0,0,1-3.312,3.346,3.327,3.327,0,0,1-3.344-3.312,3.329,3.329,0,0,1,3.31-3.346" transform="translate(-176.103 77.597)"/></clipPath><clipPath id="gm"><path class="a" d="M180.23-78.535a5.1,5.1,0,0,1,5.117,5.064,5.1,5.1,0,0,1-5.066,5.117,5.1,5.1,0,0,1-5.117-5.064A5.1,5.1,0,0,1,180.23-78.535Zm.008,1.762a3.329,3.329,0,0,0-3.31,3.346,3.326,3.326,0,0,0,3.344,3.312,3.328,3.328,0,0,0,3.312-3.346,3.329,3.329,0,0,0-3.346-3.312Z" transform="translate(-175.164 78.535)"/></clipPath><clipPath id="go"><path class="a" d="M214.465-235.006a3.983,3.983,0,0,1,4,3.96,3.98,3.98,0,0,1-3.962,4,3.98,3.98,0,0,1-4-3.96,3.982,3.982,0,0,1,3.962-4" transform="translate(-210.503 235.006)"/></clipPath><clipPath id="gq"><path class="a" d="M215.279-235.945a5.752,5.752,0,0,1,5.774,5.716,5.749,5.749,0,0,1-5.714,5.773,5.751,5.751,0,0,1-5.774-5.714A5.75,5.75,0,0,1,215.279-235.945Zm.009,1.764a3.982,3.982,0,0,0-3.962,4,3.98,3.98,0,0,0,4,3.96,3.98,3.98,0,0,0,3.962-4,3.982,3.982,0,0,0-4-3.96Z" transform="translate(-209.565 235.945)"/></clipPath><clipPath id="gs"><path class="a" d="M268.223-218.135a2.958,2.958,0,0,1,2.972,2.944,2.956,2.956,0,0,1-2.94,2.972,2.959,2.959,0,0,1-2.974-2.942,2.959,2.959,0,0,1,2.942-2.974" transform="translate(-265.281 218.135)"/></clipPath><clipPath id="gu"><path class="a" d="M269.037-219.073a4.727,4.727,0,0,1,4.747,4.7,4.727,4.727,0,0,1-4.7,4.743,4.726,4.726,0,0,1-4.747-4.7A4.726,4.726,0,0,1,269.037-219.073Zm.009,1.762a2.959,2.959,0,0,0-2.942,2.974,2.959,2.959,0,0,0,2.974,2.942,2.956,2.956,0,0,0,2.94-2.972,2.958,2.958,0,0,0-2.972-2.944Z" transform="translate(-264.341 219.073)"/></clipPath><clipPath id="gw"><path class="a" d="M269.823-259.786a6.365,6.365,0,0,1-6.4-6.332,6.367,6.367,0,0,1,6.332-6.4,6.368,6.368,0,0,1,6.4,6.334,6.367,6.367,0,0,1-6.334,6.4" transform="translate(-263.425 272.518)"/></clipPath><clipPath id="gy"><path class="a" d="M270.576-273.456a8.14,8.14,0,0,1,8.17,8.087,8.14,8.14,0,0,1-8.087,8.171,8.143,8.143,0,0,1-8.172-8.089A8.139,8.139,0,0,1,270.576-273.456Zm.008,1.762a6.368,6.368,0,0,0-6.332,6.4,6.365,6.365,0,0,0,6.4,6.332,6.367,6.367,0,0,0,6.334-6.4,6.368,6.368,0,0,0-6.4-6.334Z" transform="translate(-262.487 273.456)"/></clipPath><clipPath id="ha"><path class="a" d="M322.179-242.439a3.25,3.25,0,0,1,3.265,3.233,3.247,3.247,0,0,1-3.233,3.265,3.248,3.248,0,0,1-3.265-3.231,3.251,3.251,0,0,1,3.233-3.267" transform="translate(-318.946 242.439)"/></clipPath><clipPath id="hc"><path class="a" d="M322.994-243.377a5.018,5.018,0,0,1,5.038,4.985,5.018,5.018,0,0,1-4.987,5.038,5.018,5.018,0,0,1-5.038-4.985A5.017,5.017,0,0,1,322.994-243.377Zm.009,1.762a3.25,3.25,0,0,0-3.233,3.267,3.248,3.248,0,0,0,3.265,3.231,3.247,3.247,0,0,0,3.233-3.265A3.25,3.25,0,0,0,323-241.615Z" transform="translate(-318.007 243.377)"/></clipPath><clipPath id="he"><path class="a" d="M432.475-59.792a4.2,4.2,0,0,1,4.221,4.18,4.2,4.2,0,0,1-4.18,4.223,4.2,4.2,0,0,1-4.221-4.18,4.2,4.2,0,0,1,4.18-4.223" transform="translate(-428.295 59.792)"/></clipPath><clipPath id="hg"><path class="a" d="M433.291-60.73a5.97,5.97,0,0,1,5.993,5.932,5.968,5.968,0,0,1-5.932,5.994,5.972,5.972,0,0,1-5.994-5.934A5.97,5.97,0,0,1,433.291-60.73Zm.009,1.762a4.2,4.2,0,0,0-4.18,4.223,4.2,4.2,0,0,0,4.221,4.18,4.2,4.2,0,0,0,4.18-4.223,4.2,4.2,0,0,0-4.221-4.18Z" transform="translate(-427.357 60.73)"/></clipPath></defs><g transform="translate(0 -539)"><g class="c" transform="translate(106.506 764.302)"><g class="d" transform="translate(-107.445 -226.241)"><path class="b" d="M468.056-169.561H277.2V-12.4H468.056Z" transform="translate(-171.635 393.924)"/></g></g><g class="e" transform="translate(106.442 729.776)"><g class="d" transform="translate(-107.381 -191.715)"><path class="b" d="M424.023-187.941H327.415V3.742h96.608Z" transform="translate(-221.928 377.778)"/></g></g><g class="f" transform="translate(0 539)"><g class="g" transform="translate(-47.901 -153.095)"><g class="h"><g class="i" transform="translate(104.704 343.287)"><g class="j" transform="translate(-57.742 -191.131)"><path class="b" d="M437.517-188.252H368.543V4.015h68.974Z" transform="translate(-312.679 377.504)"/></g></g><g class="k" transform="translate(1.991 514.54)"><g class="j" transform="translate(44.971 -362.384)"><path class="b" d="M533.371-97.086H376.35v65.438H533.371Z" transform="translate(-423.199 457.591)"/></g></g><g class="l" transform="translate(104.689 282.586)"><g class="j" transform="translate(-57.727 -130.43)"><path class="b" d="M437.519-220.566H368.56v65.884h68.959Z" transform="translate(-312.713 349.117)"/></g></g><g class="m" transform="translate(0.079 1.599)"><g class="j" transform="translate(46.883 150.557)"><path class="b" d="M512.317-370.169H402.494V-84.54H512.317Z" transform="translate(-451.255 217.695)"/></g></g><g class="n" transform="translate(20.37 282.554)"><g class="j" transform="translate(26.592 -130.398)"><path class="b" d="M491.913-220.583H402.657v65.371h89.256Z" transform="translate(-431.157 349.102)"/></g></g><g class="o" transform="translate(0.548 231.751)"><g class="j" transform="translate(46.413 -79.595)"><path class="b" d="M511.717-247.628H402.642v65.044H511.717Z" transform="translate(-450.934 325.344)"/></g></g><g class="p" transform="translate(404.32 668.635)"><g class="j" transform="translate(-357.358 -516.478)"><path class="b" d="M331.693-15.054H147.982v125.5H331.693Z" transform="translate(207.462 529.654)"/></g></g><g class="q" transform="translate(286.931 668.62)"><g class="j" transform="translate(-239.969 -516.463)"><path class="b" d="M385.488-15.062H220.337v125.61H385.488Z" transform="translate(17.75 529.647)"/></g></g></g></g></g><g class="r" transform="translate(318.562 876.871)"><g class="d" transform="translate(-319.501 -338.81)"><path class="b" d="M306.268-109.661H219.984v43.4h86.284Z" transform="translate(97.634 446.544)"/></g></g><g class="s" transform="translate(292.758 842.05)"><g class="d" transform="translate(-293.697 -303.989)"><path class="b" d="M332.045-128.172H220.009V-59.02H332.045Z" transform="translate(71.81 430.283)"/></g></g><g class="t" transform="translate(318.576 906.581)"><g class="d" transform="translate(-319.515 -368.521)"><path class="b" d="M285.78-93.819H243.285V58.73H285.78Z" transform="translate(74.351 460.461)"/></g></g><g class="u" transform="translate(106.441 842.06)"><g class="d" transform="translate(-107.38 -303.999)"><path class="b" d="M480.225-128.167H263.461v79.4H480.225Z" transform="translate(-157.994 430.287)"/></g></g><g class="v" transform="translate(198.416 673.754)"><g class="d" transform="translate(-199.355 -135.693)"><path class="b" d="M386.328-217.764H265.61V-44.852H386.328Z" transform="translate(-68.134 351.579)"/></g></g><g class="w" transform="translate(57.434 539)"><g class="g" transform="translate(-0.141 -153.095)"><g class="x"><g class="y" transform="translate(141.122 242.468)"><g class="z" transform="translate(-141.122 -90.311)"><path class="b" d="M386.333-241.923H265.622v140.562H386.333Z" transform="translate(-126.393 330.356)"/></g></g><g class="aa" transform="translate(0.141 1.598)"><g class="z" transform="translate(-0.141 150.558)"><path class="b" d="M502.58-370.163H293.76v245.5H502.58Z" transform="translate(-295.498 217.701)"/></g></g></g></g></g><g class="ab" transform="translate(121.148 628.334)"><g class="d" transform="translate(-122.088 -90.273)"><path class="b" d="M416.315-241.964H319.431v140.639h96.884Z" transform="translate(-199.222 330.32)"/></g></g><g class="ac" transform="translate(7.035 539)"><g class="g" transform="translate(-0.46 -153.095)"><g class="ad"><g class="ae" transform="translate(50.497 242.428)"><g class="af" transform="translate(-50.497 -90.272)"><path class="b" d="M480.353-241.962H319.475v106.075H480.353Z" transform="translate(-270.856 330.322)"/></g></g><g class="ag" transform="translate(50.484 1.599)"><g class="af" transform="translate(-50.484 150.557)"><path class="b" d="M480.381-370.169H319.458V-84.54H480.381Z" transform="translate(-270.853 217.695)"/></g></g><g class="ah" transform="translate(151.396 520.686)"><g class="af" transform="translate(-151.396 -368.53)"><path class="b" d="M446.4-93.814H243.3V58.725H446.4Z" transform="translate(-93.807 460.465)"/></g></g><g class="ai" transform="translate(151.452 631.586)"><g class="af" transform="translate(-151.452 -479.429)"><path class="b" d="M446.333-34.791H243.28V63.838H446.333Z" transform="translate(-93.707 512.316)"/></g></g><g class="aj" transform="translate(99.916 520.658)"><g class="af" transform="translate(-99.916 -368.502)"><path class="b" d="M480.174-93.83H263.423V21.737H480.174Z" transform="translate(-165.386 460.451)"/></g></g><g class="ak" transform="translate(151.394 631.587)"><g class="af" transform="translate(-151.394 -479.431)"><path class="b" d="M391.509-34.8H305.792V83.351h85.717Z" transform="translate(-156.309 512.308)"/></g></g><g class="al" transform="translate(45.853 631.604)"><g class="af" transform="translate(-45.853 -479.448)"><path class="b" d="M471.31-34.767H335.055V83.323H471.31Z" transform="translate(-291.08 512.337)"/></g></g><g class="am" transform="translate(42.123 530.928)"><g class="af" transform="translate(-42.123 -378.771)"><path class="b" d="M462.864-88.362H348.916v105.3H462.864Z" transform="translate(-308.672 465.255)"/></g></g><g class="an" transform="translate(0.46 586.497)"><g class="af" transform="translate(-0.46 -434.34)"><path class="b" d="M504.5-58.78H348.943V92.856H504.5Z" transform="translate(-350.361 491.242)"/></g></g></g></g></g><g class="ao" transform="translate(7.014 961.262)"><g class="d" transform="translate(-7.953 -423.201)"><path class="b" d="M504.556-64.71H348.908V-3.844H504.556Z" transform="translate(-342.835 486.033)"/></g></g><g class="ap" transform="translate(659.03 1000.398)"><g class="d" transform="translate(-659.969 -462.337)"><path class="b" d="M157.39-43.876H1.883V33.951H157.39Z" transform="translate(656.208 504.335)"/></g></g><g class="aq" transform="translate(607.723 985.046)"><g class="d" transform="translate(-608.662 -446.985)"><path class="b" d="M150.194-52.063H68.479V13.948h81.715Z" transform="translate(538.305 497.143)"/></g></g><g class="ar" transform="translate(416.349 643.026)"><g class="d" transform="translate(-417.288 -104.965)"><path class="b" d="M227.434-234.148H198.457v98.069h28.977Z" transform="translate(216.905 337.186)"/></g></g><g class="as" transform="translate(314.477 643.047)"><g class="d" transform="translate(-315.416 -104.986)"><path class="b" d="M329.246-234.111H198.489v98H329.246Z" transform="translate(115.034 337.218)"/></g></g><g class="at" transform="translate(292.727 736.489)"><g class="d" transform="translate(-293.667 -198.429)"><path class="b" d="M351.034-184.367H198.463V-61.218H351.034Z" transform="translate(93.294 380.917)"/></g></g><g class="au" transform="translate(292.726 673.741)"><g class="d" transform="translate(-293.665 -135.68)"><path class="b" d="M351.006-217.771H198.482V-44.846H351.006Z" transform="translate(93.286 351.573)"/></g></g><g class="av" transform="translate(400.16 855.017)"><g class="d" transform="translate(-401.099 -316.957)"><path class="b" d="M262.76-121.269H176.619v87.685H262.76Z" transform="translate(222.601 436.347)"/></g></g><g class="aw" transform="translate(348.755 876.96)"><g class="d" transform="translate(-349.694 -338.899)"><path class="b" d="M314.2-109.588H176.616v65.743H314.2Z" transform="translate(171.17 446.608)"/></g></g><g class="ax" transform="translate(0 729.192)"><g class="g" transform="translate(-47.901 -1.405)"><g class="ay"><g class="az" transform="translate(396.656 187.804)"><g class="ba" transform="translate(-349.694 -187.804)"><path class="b" d="M314.137-89.023H176.65V54.517H314.137Z" transform="translate(171.166 274.949)"/></g></g><g class="bb" transform="translate(1.339 1.439)"><g class="ba" transform="translate(45.622 -1.439)"><path class="b" d="M534.023-188.234H376.35V4H534.023Z" transform="translate(-423.851 187.794)"/></g></g><g class="bc" transform="translate(1.582 92.526)"><g class="ba" transform="translate(45.38 -92.526)"><path class="b" d="M533.786-139.744H376.344V-38.6H533.786Z" transform="translate(-423.603 230.392)"/></g></g><g class="bd" transform="translate(1.148 1.405)"><g class="ba" transform="translate(45.814 -1.405)"><path class="b" d="M511-188.262H402.78v48.538H511Z" transform="translate(-450.473 187.77)"/></g></g><g class="be" transform="translate(554.109 256.904)"><g class="ba" transform="translate(-507.148 -256.904)"><path class="b" d="M239.63-52.238H82.265V14.1H239.63Z" transform="translate(422.973 307.263)"/></g></g><g class="bf" transform="translate(554.117 256.936)"><g class="ba" transform="translate(-507.155 -256.936)"><path class="b" d="M239.628-52.221H82.223v166.56h157.4Z" transform="translate(423.054 307.278)"/></g></g><g class="bg" transform="translate(529.575 210.277)"><g class="ba" transform="translate(-482.613 -210.277)"><path class="b" d="M240.183-77.078H109.528v51.656H240.183Z" transform="translate(371.207 285.442)"/></g></g><g class="bh" transform="translate(404.32 256.945)"><g class="ba" transform="translate(-357.359 -256.945)"><path class="b" d="M331.647-52.216H147.994V114.335H331.647Z" transform="translate(207.486 307.282)"/></g></g><g class="bi" transform="translate(404.32 210.284)"><g class="ba" transform="translate(-357.358 -210.284)"><path class="b" d="M318.016-77.056H163.564V44H318.016Z" transform="translate(191.869 285.461)"/></g></g><g class="bj" transform="translate(2.202 214.022)"><g class="ba" transform="translate(44.76 -214.022)"><path class="b" d="M486.655-75.066H429.29v54.943h57.365Z" transform="translate(-475.929 287.209)"/></g></g></g></g></g><g class="bk" transform="translate(314.552 574.947)"><g class="d" transform="translate(-315.491 -36.887)"><path class="b" d="M317.915-270.4H211.355v72.779h106.56Z" transform="translate(102.196 305.343)"/></g></g><g class="bl" transform="translate(314.477 574.999)"><g class="d" transform="translate(-315.416 -36.938)"><path class="b" d="M317.9-270.336H211.391V-167H317.9Z" transform="translate(102.147 305.396)"/></g></g><g class="bm" transform="translate(0 539)"><g class="g" transform="translate(-46.023 -111.769)"><g class="bn"><g class="bo" transform="translate(259.396 147.768)"><g class="bp" transform="translate(-214.313 -36.938)"><path class="b" d="M371.4-270.336H265.58V-167H371.4Z" transform="translate(-53.146 305.396)"/></g></g><g class="bq" transform="translate(259.409 0.737)"><g class="bp" transform="translate(-214.326 110.093)"><path class="b" d="M371.407-348.62H265.553v205.028H371.407Z" transform="translate(-53.105 236.625)"/></g></g><g class="br" transform="translate(0.825 545.159)"><g class="bp" transform="translate(44.259 -434.329)"><path class="b" d="M507.389-58.786H405.116V92.861H507.389Z" transform="translate(-451.253 491.237)"/></g></g><g class="bs" transform="translate(0.892 625.937)"><g class="bp" transform="translate(44.191 -515.107)"><path class="b" d="M507.316-15.784H405.122V79.321H507.316Z" transform="translate(-451.191 529.013)"/></g></g><g class="bt" transform="translate(0.58 545.151)"><g class="bp" transform="translate(44.503 -434.322)"><path class="b" d="M486.352-58.812h-57.01v72.7h57.01Z" transform="translate(-475.723 491.214)"/></g></g></g></g></g><g class="bu" transform="translate(193.017 758.9)"><g class="d" transform="translate(-193.956 -220.839)"><path class="b" d="M339.99-172.446H324.521v15.467H339.99Z" transform="translate(-132.459 391.389)"/></g></g><g class="bv" transform="translate(191.254 757.135)"><g class="d" transform="translate(-192.194 -219.075)"><path class="b" d="M342.585-173.388h-19v19h19Z" transform="translate(-133.288 390.562)"/></g></g><g class="bw" transform="translate(119.078 727.676)"><g class="d" transform="translate(-120.017 -189.615)"><path class="b" d="M376.216-189.062h-8.773v8.771h8.773Z" transform="translate(-249.312 376.793)"/></g></g><g class="bx" transform="translate(117.316 725.914)"><g class="d" transform="translate(-118.255 -187.853)"><path class="b" d="M378.809-190H366.5V-177.7h12.308Z" transform="translate(-250.135 375.966)"/></g></g><g class="by" transform="translate(51.744 663.143)"><g class="d" transform="translate(-52.684 -125.082)"><path class="b" d="M415.115-223.422h-15.3v15.3h15.3Z" transform="translate(-349.029 346.608)"/></g></g><g class="bz" transform="translate(49.982 661.378)"><g class="d" transform="translate(-50.921 -123.318)"><path class="b" d="M417.712-224.363H398.878v18.834h18.834Z" transform="translate(-349.857 345.782)"/></g></g><g class="ca" transform="translate(313.804 901.804)"><g class="d" transform="translate(-314.744 -363.744)"><path class="b" d="M275.088-96.37H260.9v14.184h14.184Z" transform="translate(51.946 458.22)"/></g></g><g class="cb" transform="translate(312.042 900.04)"><g class="d" transform="translate(-312.981 -361.98)"><path class="b" d="M277.684-97.311H259.962v17.72h17.721Z" transform="translate(51.12 457.393)"/></g></g><g class="cc" transform="translate(155.169 1014.689)"><g class="d" transform="translate(-156.108 -476.628)"><path class="b" d="M357.7-36.272H347.44v10.256H357.7Z" transform="translate(-193.219 511.015)"/></g></g><g class="cd" transform="translate(153.407 1012.925)"><g class="d" transform="translate(-154.346 -474.865)"><path class="b" d="M360.292-37.214H346.5V-23.42h13.792Z" transform="translate(-194.047 510.187)"/></g></g><g class="ce" transform="translate(42.863 955.412)"><g class="d" transform="translate(-43.802 -417.351)"><path class="b" d="M420.333-67.833H403.992v16.341h16.341Z" transform="translate(-362.085 483.289)"/></g></g><g class="cf" transform="translate(41.099 953.648)"><g class="d" transform="translate(-42.038 -415.587)"><path class="b" d="M422.927-68.775H403.051V-48.9h19.876Z" transform="translate(-362.912 482.462)"/></g></g><g class="cg" transform="translate(807.711 1071.447)"><g class="d" transform="translate(-808.65 -533.386)"><path class="b" d="M9.7-6.057H.765V2.875H9.7Z" transform="translate(805.999 537.558)"/></g></g><g class="ch" transform="translate(805.947 1069.683)"><g class="d" transform="translate(-806.886 -531.623)"><path class="b" d="M12.293-7H-.176V5.472H12.293Z" transform="translate(805.172 536.73)"/></g></g><g class="ci" transform="translate(681.107 996.648)"><g class="d" transform="translate(-682.047 -458.588)"><path class="b" d="M78.591-45.878H66.464v12.127H78.591Z" transform="translate(613.693 502.576)"/></g></g><g class="cj" transform="translate(679.344 994.886)"><g class="d" transform="translate(-680.283 -456.826)"><path class="b" d="M81.188-46.819H65.523v15.665H81.188Z" transform="translate(612.865 501.749)"/></g></g><g class="ck" transform="translate(438.514 734.329)"><g class="d" transform="translate(-439.453 -196.268)"><path class="b" d="M206.183-185.521h-8.812v8.81h8.812Z" transform="translate(240.196 379.903)"/></g></g><g class="cl" transform="translate(436.75 732.565)"><g class="d" transform="translate(-437.69 -194.504)"><path class="b" d="M208.777-186.462H196.43v12.345h12.347Z" transform="translate(239.37 379.077)"/></g></g><g class="cm" transform="translate(287.423 836.725)"><g class="d" transform="translate(-288.362 -298.664)"><path class="b" d="M289.645-131.016H274.367v15.278h15.278Z" transform="translate(12.1 427.785)"/></g></g><g class="cn" transform="translate(285.661 834.961)"><g class="d" transform="translate(-286.6 -296.9)"><path class="b" d="M292.24-131.957H273.425v18.813H292.24Z" transform="translate(11.274 426.958)"/></g></g><g class="co" transform="translate(402.252 852.577)"><g class="d" transform="translate(-403.191 -314.516)"><path class="b" d="M225.81-122.573h-9.5v9.505h9.5Z" transform="translate(184.998 435.202)"/></g></g><g class="cp" transform="translate(400.49 850.813)"><g class="d" transform="translate(-401.429 -312.752)"><path class="b" d="M228.4-123.514H215.366v13.04H228.4Z" transform="translate(184.172 434.375)"/></g></g><g class="cq" transform="translate(397.353 874.072)"><g class="d" transform="translate(-398.292 -336.012)"><path class="b" d="M228.77-111.13H218.517v10.255H228.77Z" transform="translate(177.887 445.254)"/></g></g><g class="cr" transform="translate(395.589 872.31)"><g class="d" transform="translate(-396.528 -334.25)"><path class="b" d="M231.366-112.071h-13.79v13.79h13.79Z" transform="translate(177.059 444.427)"/></g></g><g class="cs" transform="translate(346.659 913.488)"><g class="d" transform="translate(-347.598 -375.428)"><path class="b" d="M255.1-90.146h-8.842V-81.3H255.1Z" transform="translate(99.461 463.688)"/></g></g><g class="ct" transform="translate(344.897 911.726)"><g class="d" transform="translate(-345.836 -373.666)"><path class="b" d="M257.691-91.086H245.312v12.377h12.379Z" transform="translate(98.632 462.862)"/></g></g><g class="cu" transform="translate(102.474 912.853)"><g class="d" transform="translate(-103.414 -374.793)"><path class="b" d="M386.846-90.487h-12.6v12.6h12.6Z" transform="translate(-272.727 463.388)"/></g></g><g class="cv" transform="translate(100.712 911.09)"><g class="d" transform="translate(-101.651 -373.029)"><path class="b" d="M389.441-91.428H373.307v16.134h16.134Z" transform="translate(-273.553 462.561)"/></g></g><g class="cw" transform="translate(52.161 724.565)"><g class="d" transform="translate(-53.101 -186.504)"><path class="b" d="M414.249-190.723H400.33V-176.8h13.919Z" transform="translate(-349.123 375.334)"/></g></g><g class="cx" transform="translate(50.399 722.801)"><g class="d" transform="translate(-51.338 -184.74)"><path class="b" d="M416.843-191.664H399.388v17.455h17.455Z" transform="translate(-349.947 374.507)"/></g></g><g class="cy" transform="translate(653.933 1041.339)"><g class="d" transform="translate(-654.873 -503.278)"><path class="b" d="M94.3-22.089H79.521V-7.313H94.3Z" transform="translate(573.458 523.474)"/></g></g><g class="cz" transform="translate(652.171 1039.575)"><g class="d" transform="translate(-653.111 -501.514)"><path class="b" d="M96.892-23.031H78.581V-4.718H96.892Z" transform="translate(572.631 522.646)"/></g></g><g class="da" transform="translate(604.937 982.323)"><g class="d" transform="translate(-605.877 -444.262)"><path class="b" d="M118.192-53.5h-10.1v10.1h10.1Z" transform="translate(495.899 495.878)"/></g></g><g class="db" transform="translate(603.173 980.559)"><g class="d" transform="translate(-604.113 -442.498)"><path class="b" d="M120.788-54.444h-13.64v13.638h13.64Z" transform="translate(495.073 495.051)"/></g></g><g class="dc" transform="translate(501.45 979.932)"><g class="d" transform="translate(-502.39 -441.871)"><path class="b" d="M175.2-54.778H161.011V-40.6H175.2Z" transform="translate(339.485 494.758)"/></g></g><g class="dd" transform="translate(499.688 978.17)"><g class="d" transform="translate(-500.628 -440.109)"><path class="b" d="M177.788-55.72H160.07V-38h17.718Z" transform="translate(338.66 493.93)"/></g></g><g class="de" transform="translate(352.326 1050.397)"><g class="d" transform="translate(-353.265 -512.336)"><path class="b" d="M253.957-17.266H241.106V-4.413h12.851Z" transform="translate(110.268 527.711)"/></g></g><g class="df" transform="translate(350.564 1048.633)"><g class="d" transform="translate(-351.503 -510.572)"><path class="b" d="M256.551-18.207H240.165V-1.819h16.386Z" transform="translate(109.441 526.884)"/></g></g><g class="dg" transform="translate(478.736 935.175)"><g class="d" transform="translate(-479.675 -397.115)"><path class="b" d="M185.529-78.6H175.1v10.433h10.431Z" transform="translate(302.689 473.829)"/></g></g><g class="dh" transform="translate(476.972 933.413)"><g class="d" transform="translate(-477.911 -395.353)"><path class="b" d="M188.126-79.543h-13.97v13.968h13.97Z" transform="translate(301.862 473.002)"/></g></g><g class="di" transform="translate(412.807 639.487)"><g class="d" transform="translate(-413.746 -101.426)"><path class="b" d="M221.24-236.012H209.5v11.742H221.24Z" transform="translate(202.359 335.548)"/></g></g><g class="dj" transform="translate(411.045 637.723)"><g class="d" transform="translate(-411.984 -99.662)"><path class="b" d="M223.835-236.954H208.556v15.279h15.279Z" transform="translate(201.533 334.721)"/></g></g><g class="dk" transform="translate(311.96 671.179)"><g class="d" transform="translate(-312.899 -133.118)"><path class="b" d="M273.963-219.139h-9.687v9.687h9.687Z" transform="translate(46.737 350.371)"/></g></g><g class="dl" transform="translate(310.196 669.417)"><g class="d" transform="translate(-311.135 -131.356)"><path class="b" d="M276.56-220.081H263.334v13.226H276.56Z" transform="translate(45.909 349.543)"/></g></g><g class="dm" transform="translate(308.627 569.022)"><g class="d" transform="translate(-309.566 -30.961)"><path class="b" d="M278.939-273.527H262.416V-257h16.523Z" transform="translate(45.255 302.593)"/></g></g><g class="dn" transform="translate(306.863 567.259)"><g class="d" transform="translate(-307.802 -29.199)"><path class="b" d="M281.535-274.468h-20.06v20.058h20.06Z" transform="translate(44.427 301.766)"/></g></g><g class="do" transform="translate(210.567 625.524)"><g class="d" transform="translate(-211.506 -87.464)"><path class="b" d="M328.214-243.443H317.941v10.271h10.273Z" transform="translate(-108.322 329.021)"/></g></g><g class="dp" transform="translate(208.803 623.762)"><g class="d" transform="translate(-209.743 -85.701)"><path class="b" d="M330.809-244.385H317v13.81h13.809Z" transform="translate(-109.149 328.193)"/></g></g><g class="dq" transform="translate(3.255 968.622)"><g class="d" transform="translate(-4.195 -430.561)"><path class="b" d="M439.471-60.8H427.289v12.182h12.182Z" transform="translate(-424.986 489.469)"/></g></g><g class="dr" transform="translate(1.491 966.859)"><g class="d" transform="translate(-2.431 -428.799)"><path class="b" d="M442.066-61.739H426.347v15.717h15.719Z" transform="translate(-425.812 488.642)"/></g></g></g></svg>