<svg xmlns="http://www.w3.org/2000/svg" width="28" height="23" viewBox="0 0 28 23"><defs><style>.a,.e{fill:none;}.a,.b{stroke:#fff;}.b,.c{fill:#fff;}.b{stroke-width:0.25px;}.d{stroke:none;}</style></defs><g transform="translate(-4110 264)"><g class="a" transform="translate(4110 -264)"><rect class="d" width="28" height="23" rx="4"/><rect class="e" x="0.5" y="0.5" width="27" height="22" rx="3.5"/></g><path class="b" d="M20.614,16.8h-9.99c-.345,0-.624-.18-.624-.4s.28-.4.624-.4h9.99c.345,0,.624.18.624.4S20.959,16.8,20.614,16.8Z" transform="translate(4105.507 -266.743)"/><path class="b" d="M20.614,20.8h-9.99c-.345,0-.624-.18-.624-.4s.28-.4.624-.4h9.99c.345,0,.624.18.624.4S20.959,20.8,20.614,20.8Z" transform="translate(4105.507 -267.537)"/><path class="b" d="M20.614,12.8h-9.99c-.345,0-.624-.18-.624-.4s.28-.4.624-.4h9.99c.345,0,.624.18.624.4S20.959,12.8,20.614,12.8Z" transform="translate(4105.507 -265.948)"/><path class="b" d="M20.614,8.8h-9.99c-.345,0-.624-.18-.624-.4s.28-.4.624-.4h9.99c.345,0,.624.18.624.4S20.959,8.8,20.614,8.8Z" transform="translate(4105.507 -265.154)"/><path class="c" d="M156.244,357.57l-1.176-1.176-.725.725,1.539,1.539a.513.513,0,0,0,.725,0l3.59-3.59-.725-.725Z" transform="translate(3973.894 -611.308)"/></g></svg>