<svg xmlns="http://www.w3.org/2000/svg" width="57" height="47" viewBox="0 0 57 47">
  <g id="Group_1160" data-name="Group 1160" transform="translate(-48 -71)">
    <g id="Group_1157" data-name="Group 1157" transform="translate(56.164 77.123)">
      <path id="Path_1681" data-name="Path 1681" d="M94.125,130.161H93.12V113.636a5.776,5.776,0,0,0-1.814-4.3,6.048,6.048,0,0,0-4.3-1.808H80.441a1.155,1.155,0,0,0,0,2.264H87a3.546,3.546,0,0,1,2.646,1.155,3.708,3.708,0,0,1,1.155,2.715v16.5l-11.472-.075a.7.7,0,0,0-.381.075h-1V105.047a6.094,6.094,0,0,0-6.117-6.128H65.2a6.094,6.094,0,0,0-6.117,6.128v25.126H57.5a1.155,1.155,0,1,0,0,2.264H94.021a1.155,1.155,0,0,0,1.155-1.155,1.051,1.051,0,0,0-1.057-1.155Zm-32.6,0V105.047a3.853,3.853,0,0,1,3.778-3.853h6.607a3.87,3.87,0,0,1,3.853,3.853v25.126Z" transform="translate(-56.113 -98.919)" fill="#603d82"/>
      <path id="Path_1682" data-name="Path 1682" d="M256.869,322.206h-5.586a1.155,1.155,0,1,0,0,2.264h5.586a1.155,1.155,0,0,0,1.155-1.155,1.109,1.109,0,0,0-1.155-1.155Zm0,7.7h-5.586a1.155,1.155,0,1,0,0,2.258h5.586a1.155,1.155,0,0,0,1.155-1.126,1.109,1.109,0,0,0-1.155-1.155Zm0-15.249h-5.586a1.155,1.155,0,0,0,0,2.264h5.586a1.155,1.155,0,0,0,1.155-1.155,1.069,1.069,0,0,0-1.155-1.155Zm9.958,17.507h5.58a1.155,1.155,0,1,0,0-2.258h-5.58a1.155,1.155,0,0,0-1.155,1.155,1.109,1.109,0,0,0,1.155,1.126Zm0-7.694h5.58a1.155,1.155,0,1,0,0-2.264h-5.58a1.155,1.155,0,0,0-1.155,1.155,1.115,1.115,0,0,0,1.155,1.155Z" transform="translate(-241.522 -305.3)" fill="#603d82"/>
    </g>
    <g id="Rectangle_1" data-name="Rectangle 1" transform="translate(48 71)" fill="none" stroke="#603d82" stroke-width="1">
      <rect width="57" height="47" rx="4" stroke="none"/>
      <rect x="0.5" y="0.5" width="56" height="46" rx="3.5" fill="none"/>
    </g>
  </g>
</svg>
