<svg xmlns="http://www.w3.org/2000/svg" width="28" height="23" viewBox="0 0 28 23">
  <g id="Group_923" data-name="Group 923" transform="translate(-2022 -1056)">
    <g id="Rectangle_6" data-name="Rectangle 6" transform="translate(2022 1056)" fill="none" stroke="#603d82" stroke-width="1">
      <rect width="28" height="23" rx="4" stroke="none"/>
      <rect x="0.5" y="0.5" width="27" height="22" rx="3.5" fill="none"/>
    </g>
    <g id="Group_4" data-name="Group 4" transform="translate(2025 1057)">
      <path id="Path_3" data-name="Path 3" d="M17.619,20.027H8a2.006,2.006,0,0,1-2-2V6A2.006,2.006,0,0,1,8,4h9.616a2.006,2.006,0,0,1,2,2V18.02a2.006,2.006,0,0,1-2,2.007ZM8,4.8A1.2,1.2,0,0,0,6.8,6V18.02A1.2,1.2,0,0,0,8,19.22h9.616a1.2,1.2,0,0,0,1.2-1.2V6a1.2,1.2,0,0,0-1.2-1.2Z" transform="translate(-1.699 -1.359)" fill="#603d82"/>
      <path id="Path_4" data-name="Path 4" d="M16.811,16.8H10.4a.4.4,0,0,1,0-.8h6.411a.4.4,0,1,1,0,.8Z" transform="translate(-2.493 -3.743)" fill="#603d82" stroke="#603d82" stroke-width="0.25"/>
      <path id="Path_5" data-name="Path 5" d="M16.811,20.8H10.4a.4.4,0,0,1,0-.8h6.411a.4.4,0,0,1,0,.8Z" transform="translate(-2.493 -4.537)" fill="#603d82" stroke="#603d82" stroke-width="0.25"/>
      <path id="Path_6" data-name="Path 6" d="M16.811,12.8H10.4a.4.4,0,0,1,0-.8h6.411a.4.4,0,0,1,0,.8Z" transform="translate(-2.493 -2.948)" fill="#603d82" stroke="#603d82" stroke-width="0.25"/>
      <path id="Path_7" data-name="Path 7" d="M16.811,8.8H10.4a.4.4,0,0,1,0-.8h6.411a.4.4,0,1,1,0,.8Z" transform="translate(-2.493 -2.154)" fill="#603d82" stroke="#603d82" stroke-width="0.25"/>
    </g>
  </g>
</svg>
