<svg xmlns="http://www.w3.org/2000/svg" width="28" height="23" viewBox="0 0 28 23"><defs><style>.a,.b{fill:#fff;}.a,.c{stroke:#fff;}.a{stroke-width:0.25px;}.c,.e{fill:none;}.d{stroke:none;}</style></defs><g transform="translate(-1927 -1006)"><g transform="translate(-40.5)"><path class="a" d="M20,6a.5.5,0,0,1,0,1H16a.5.5,0,0,1,0-1Z" transform="translate(1970 1005)"/></g><g transform="translate(-40.5 -1)"><path class="a" d="M20,16a.5.5,0,0,1,0,1H16a.5.5,0,0,1,0-1Z" transform="translate(1970 1005)"/><path class="a" d="M20,19a.5.5,0,0,1,0,1H16a.5.5,0,0,1,0-1Z" transform="translate(1970 1005)"/></g><path class="b" d="M11.5,12.5h1V23h-1Z" transform="translate(1929 1005)"/><path class="b" d="M11.5,1h1V11.5h-1Z" transform="translate(1929 1005)"/><path class="b" d="M1,11.5H27.89v1H1Z" transform="translate(1926.559 1005)"/><g transform="translate(-41.5)"><path class="a" d="M8,6A.5.5,0,0,1,8,7H6.5V6Z" transform="translate(1970 1005)"/><path class="a" d="M6.5,7V8.5a.5.5,0,0,1-1,0V7Z" transform="translate(1970 1005)"/><path class="a" d="M5.5,6h1V7h-1Z" transform="translate(1970 1005)"/><path class="a" d="M6.5,4.5V6h-1V4.5a.5.5,0,0,1,1,0Z" transform="translate(1970 1005)"/><path class="a" d="M5.5,6V7H4A.5.5,0,0,1,4,6Z" transform="translate(1970 1005)"/></g><g transform="translate(-42)"><path class="a" d="M7.85,19.15a.5.5,0,1,1-.7.7L6,18.7l.7-.7Z" transform="translate(1970 1005)"/><path class="a" d="M7.15,16.15a.495.495,0,1,1,.7.7L6.7,18,6,17.3Z" transform="translate(1970 1005)"/><path class="a" d="M5.505,17.5h.99v.99h-.99Z" transform="translate(1959.029 1014.515) rotate(-45)"/><path class="a" d="M6,17.3l-.7.7L4.15,16.85a.495.495,0,1,1,.7-.7Z" transform="translate(1970 1005)"/><path class="a" d="M4.85,19.85a.5.5,0,1,1-.7-.7L5.3,18l.7.7Z" transform="translate(1970 1005)"/></g><g class="c" transform="translate(1927 1006)"><rect class="d" width="28" height="23" rx="4"/><rect class="e" x="0.5" y="0.5" width="27" height="22" rx="3.5"/></g></g></svg>