<svg xmlns="http://www.w3.org/2000/svg" width="18.875" height="17.696" viewBox="0 0 18.875 17.696"><defs><style>.a{fill:#603d82;}</style></defs><g transform="translate(0)"><path class="a" d="M16.442,16H2.433A2.436,2.436,0,0,0,0,18.433V31.262A2.436,2.436,0,0,0,2.433,33.7H14.746a2.708,2.708,0,0,0,1.927-.8l1.4-1.4a2.708,2.708,0,0,0,.8-1.927V18.433A2.436,2.436,0,0,0,16.442,16ZM2.433,17.18H16.442A1.255,1.255,0,0,1,17.7,18.433v1.7H1.18v-1.7A1.255,1.255,0,0,1,2.433,17.18ZM1.18,31.262V21.309H17.7v7.668H15.852a1.7,1.7,0,0,0-1.7,1.7v1.843H2.433A1.255,1.255,0,0,1,1.18,31.262Zm16.063-.6-1.4,1.4a1.544,1.544,0,0,1-.5.337V30.673a.517.517,0,0,1,.516-.516h1.727A1.545,1.545,0,0,1,17.243,30.66Z" transform="translate(0 -16)"/><path class="a" d="M122.617,208.59a.59.59,0,0,0-.59-.59H112.59a.59.59,0,1,0,0,1.18h9.438A.59.59,0,0,0,122.617,208.59Z" transform="translate(-107.871 -200.922)"/><path class="a" d="M151.668,288H144.59a.59.59,0,0,0,0,1.18h7.078a.59.59,0,0,0,0-1.18Z" transform="translate(-138.692 -277.973)"/></g></svg>