<svg xmlns="http://www.w3.org/2000/svg" width="29.903" height="28.034" viewBox="0 0 29.903 28.034"><defs><style>.a{fill:#7c7c7c;}</style></defs><path class="a" d="M26.048,16H3.855A3.859,3.859,0,0,0,0,19.855V40.179a3.859,3.859,0,0,0,3.855,3.855H23.362a4.29,4.29,0,0,0,3.054-1.265l2.223-2.223A4.29,4.29,0,0,0,29.9,37.493V19.855A3.859,3.859,0,0,0,26.048,16ZM3.855,17.869H26.048a1.988,1.988,0,0,1,1.986,1.986v2.687H1.869V19.855A1.988,1.988,0,0,1,3.855,17.869ZM1.869,40.179V24.41H28.034V36.558h-2.92a2.69,2.69,0,0,0-2.687,2.687v2.92H3.855A1.988,1.988,0,0,1,1.869,40.179Zm25.448-.954-2.223,2.223a2.446,2.446,0,0,1-.8.534V39.245a.819.819,0,0,1,.818-.818H27.85A2.447,2.447,0,0,1,27.316,39.225Z" transform="translate(0 -16)"/><path class="a" d="M128.82,208.934a.934.934,0,0,0-.934-.934H112.934a.934.934,0,0,0,0,1.869h14.951A.935.935,0,0,0,128.82,208.934Z" transform="translate(-105.459 -196.786)"/><path class="a" d="M156.148,288H144.934a.934.934,0,0,0,0,1.869h11.214a.934.934,0,1,0,0-1.869Z" transform="translate(-135.59 -272.114)"/></svg>