<svg xmlns="http://www.w3.org/2000/svg" width="25.522" height="28.733" viewBox="0 0 25.522 28.733"><defs><style>.a,.b{fill:#603d82;}.a{stroke:#fff;stroke-width:0.5px;}</style></defs><g transform="translate(-944.849 -1077.536)"><path class="a" d="M54.022,18.077a3.919,3.919,0,0,0-3.086-3.824V2.48A2.483,2.483,0,0,0,48.455,0H32.031A3.035,3.035,0,0,0,29,3.031V6.173A.827.827,0,0,0,29.827,7h3.582V24.691a.827.827,0,0,0,.827.827H47.077v1.874a.827.827,0,0,0,1.467.523L50.108,26l1.564,1.916a.827.827,0,0,0,1.467-.523V20.549A3.894,3.894,0,0,0,54.022,18.077Zm-1.653,0a2.26,2.26,0,1,1-2.26-2.26A2.262,2.262,0,0,1,52.368,18.077ZM30.653,5.346V3.031a1.378,1.378,0,0,1,2.754-.07c0,.052,0-.112,0,2.385Zm4.409,18.518c0-22.116.031-20.966-.057-21.419a3.021,3.021,0,0,0-.272-.792H48.455a.828.828,0,0,1,.827.827V14.253a3.91,3.91,0,0,0-2.2,6.3v3.316Zm15.686.3a.827.827,0,0,0-1.281,0l-.737.9V21.739a3.9,3.9,0,0,0,2.756,0v3.332Z" transform="translate(916.099 1077.786)"/><path class="a" d="M397.739,313.007a.827.827,0,1,0,.9.742A.828.828,0,0,0,397.739,313.007Z" transform="translate(568.386 782.033)"/><path class="b" d="M7.792,10.43a3.019,3.019,0,0,0-5.638-.805,2.416,2.416,0,0,0,.262,4.817H7.649a2.008,2.008,0,0,0,.143-4.012ZM5.636,11.623v1.61H4.026v-1.61H2.818L4.831,9.61l2.013,2.013Z" transform="translate(953.917 1075.301)"/></g></svg>