<svg xmlns="http://www.w3.org/2000/svg" width="36.52" height="41.142" viewBox="0 0 36.52 41.142"><defs><style>.a,.b{fill:#603d82;}.a{stroke:#fff;stroke-width:0.5px;}</style></defs><g transform="translate(-1031.383 -1077.536)"><path class="a" d="M65.02,26.024a5.642,5.642,0,0,0-4.443-5.505V3.57A3.574,3.574,0,0,0,57.007,0H33.364A4.369,4.369,0,0,0,29,4.364V8.886a1.19,1.19,0,0,0,1.19,1.19h5.157V35.544a1.19,1.19,0,0,0,1.19,1.19H55.023v2.7a1.19,1.19,0,0,0,2.112.753l2.252-2.758,2.252,2.758a1.19,1.19,0,0,0,2.112-.753V29.581A5.606,5.606,0,0,0,65.02,26.024Zm-2.38,0a3.253,3.253,0,1,1-3.253-3.253A3.257,3.257,0,0,1,62.64,26.024ZM31.38,7.7V4.364a1.983,1.983,0,0,1,3.964-.1c0,.074,0-.161,0,3.433Zm6.347,26.658c0-31.838.045-30.182-.083-30.834a4.348,4.348,0,0,0-.392-1.14H57.007A1.191,1.191,0,0,1,58.2,3.57V20.518a5.629,5.629,0,0,0-3.174,9.063v4.773Zm22.582.437a1.191,1.191,0,0,0-1.844,0l-1.062,1.3V31.3a5.619,5.619,0,0,0,3.967,0v4.8Z" transform="translate(1002.633 1077.786)"/><path class="a" d="M398.067,313.009a1.19,1.19,0,1,0,1.3,1.068A1.192,1.192,0,0,0,398.067,313.009Z" transform="translate(663.835 789.616)"/><path class="b" d="M11.217,11.5A4.346,4.346,0,0,0,3.1,10.338a3.477,3.477,0,0,0,.377,6.934h7.534a2.891,2.891,0,0,0,.206-5.775Zm-3.1,1.718v2.318H5.8V13.216H4.057l2.9-2.9,2.9,2.9Z" transform="translate(1044.326 1077.725)"/></g></svg>