<svg xmlns="http://www.w3.org/2000/svg" width="28" height="23" viewBox="0 0 28 23">
  <g id="Group_8" data-name="Group 8" transform="translate(-152 -38)">
    <g id="Group_7" data-name="Group 7">
      <g id="admin" transform="translate(159.508 42.001)">
        <path id="Path_8" data-name="Path 8" d="M90.78,7.5a3.628,3.628,0,0,0,2.651-1.1,3.628,3.628,0,0,0,1.1-2.651,3.628,3.628,0,0,0-1.1-2.651,3.749,3.749,0,0,0-5.3,0,3.628,3.628,0,0,0-1.1,2.651,3.628,3.628,0,0,0,1.1,2.651A3.629,3.629,0,0,0,90.78,7.5ZM88.774,1.743a2.836,2.836,0,0,1,4.012,0,2.711,2.711,0,0,1,.831,2.006,2.71,2.71,0,0,1-.831,2.006,2.836,2.836,0,0,1-4.012,0,2.71,2.71,0,0,1-.831-2.006,2.71,2.71,0,0,1,.831-2.006Zm0,0" transform="translate(-84.386 0)" fill="#603d82"/>
        <path id="Path_9" data-name="Path 9" d="M12.954,251.766a9.261,9.261,0,0,0-.126-.985,7.75,7.75,0,0,0-.242-.989,4.884,4.884,0,0,0-.407-.923,3.477,3.477,0,0,0-.613-.8,2.7,2.7,0,0,0-.881-.553,3.044,3.044,0,0,0-1.124-.2,1.141,1.141,0,0,0-.609.258c-.183.119-.4.257-.635.409a3.638,3.638,0,0,1-.822.362,3.189,3.189,0,0,1-2.009,0,3.626,3.626,0,0,1-.821-.362c-.236-.151-.45-.289-.636-.41a1.14,1.14,0,0,0-.609-.258,3.04,3.04,0,0,0-1.124.2,2.7,2.7,0,0,0-.881.553,3.477,3.477,0,0,0-.613.8,4.893,4.893,0,0,0-.407.922,7.77,7.77,0,0,0-.242.989,9.2,9.2,0,0,0-.126.985c-.021.3-.031.606-.031.919a2.585,2.585,0,0,0,.767,1.957,2.764,2.764,0,0,0,1.978.722h7.5a2.764,2.764,0,0,0,1.978-.722,2.584,2.584,0,0,0,.768-1.956C12.986,252.372,12.975,252.062,12.954,251.766Zm-1.366,2.215a1.861,1.861,0,0,1-1.349.47h-7.5a1.861,1.861,0,0,1-1.349-.47,1.688,1.688,0,0,1-.484-1.295c0-.292.01-.58.029-.856a8.3,8.3,0,0,1,.114-.886,6.853,6.853,0,0,1,.213-.872,3.984,3.984,0,0,1,.331-.75,2.578,2.578,0,0,1,.45-.591,1.793,1.793,0,0,1,.586-.364,2.1,2.1,0,0,1,.718-.139c.032.017.089.049.181.109.188.122.4.262.643.414a4.519,4.519,0,0,0,1.031.461,4.1,4.1,0,0,0,2.571,0,4.525,4.525,0,0,0,1.034-.461c.246-.156.455-.292.64-.414a2.044,2.044,0,0,1,.181-.109,2.1,2.1,0,0,1,.719.139,1.8,1.8,0,0,1,.586.364,2.57,2.57,0,0,1,.45.591,3.971,3.971,0,0,1,.331.75,6.836,6.836,0,0,1,.213.872,8.369,8.369,0,0,1,.114.886h0c.019.276.029.563.029.856a1.688,1.688,0,0,1-.484,1.294Zm0,0" transform="translate(0 -239.796)" fill="#603d82"/>
      </g>
      <g id="Group_923" data-name="Group 923" transform="translate(-1870 -1018)">
        <g id="Rectangle_6" data-name="Rectangle 6" transform="translate(2022 1056)" fill="none" stroke="#603d82" stroke-width="1">
          <rect width="28" height="23" rx="4" stroke="none"/>
          <rect x="0.5" y="0.5" width="27" height="22" rx="3.5" fill="none"/>
        </g>
      </g>
    </g>
  </g>
</svg>
