<svg xmlns="http://www.w3.org/2000/svg" width="32.369" height="36.458" viewBox="0 0 32.369 36.458"><defs><style>.a{fill:#603d82;stroke:#fff;stroke-width:0.5px;}</style></defs><g transform="translate(-1032.145 -1014.536)"><path class="a" d="M60.869,23.024a4.992,4.992,0,0,0-3.931-4.871V3.159A3.162,3.162,0,0,0,53.779,0H32.861A3.865,3.865,0,0,0,29,3.861v4a1.053,1.053,0,0,0,1.053,1.053h4.563V31.448A1.053,1.053,0,0,0,35.669,32.5H52.024v2.387a1.053,1.053,0,0,0,1.869.666l1.992-2.44,1.992,2.44a1.053,1.053,0,0,0,1.869-.666V26.172A4.96,4.96,0,0,0,60.869,23.024Zm-2.106,0a2.878,2.878,0,1,1-2.878-2.878A2.881,2.881,0,0,1,58.763,23.024ZM31.106,6.809V3.861a1.755,1.755,0,0,1,3.507-.089c0,.066,0-.143,0,3.037Zm5.616,23.586c0-28.169.04-26.7-.073-27.281A3.847,3.847,0,0,0,36.3,2.106H53.779a1.054,1.054,0,0,1,1.053,1.053V18.153a4.98,4.98,0,0,0-2.808,8.019v4.223Zm19.979.387a1.053,1.053,0,0,0-1.631,0l-.939,1.151V27.688a4.971,4.971,0,0,0,3.51,0v4.244Z" transform="translate(1003.395 1014.786)"/><path class="a" d="M397.943,313.008a1.053,1.053,0,1,0,1.152.945A1.055,1.055,0,0,0,397.943,313.008Z" transform="translate(661.232 723.754)"/><path class="a" d="M190.053,187.106h8.985a1.053,1.053,0,1,0,0-2.106h-8.985a1.053,1.053,0,0,0,0,2.106Z" transform="translate(854.625 835.046)"/><path class="a" d="M200.091,242.053A1.053,1.053,0,0,0,199.038,241h-8.985a1.053,1.053,0,1,0,0,2.106h8.985A1.053,1.053,0,0,0,200.091,242.053Z" transform="translate(854.625 782.977)"/><path class="a" d="M200.091,242.053A1.053,1.053,0,0,0,199.038,241h-8.985a1.053,1.053,0,1,0,0,2.106h8.985A1.053,1.053,0,0,0,200.091,242.053Z" transform="translate(854.625 786.908)"/></g></svg>