<svg xmlns="http://www.w3.org/2000/svg" width="25.565" height="28.782" viewBox="0 0 25.565 28.782"><defs><style>.a{fill:#603d82;stroke:#fff;stroke-width:0.5px;}</style></defs><g transform="translate(-945.75 -1014.536)"><path class="a" d="M54.065,18.109a3.926,3.926,0,0,0-3.092-3.831V2.484A2.487,2.487,0,0,0,48.489,0H32.037A3.04,3.04,0,0,0,29,3.037V6.184a.828.828,0,0,0,.828.828h3.589V24.734a.828.828,0,0,0,.828.828H47.109v1.877a.828.828,0,0,0,1.47.524l1.567-1.919,1.567,1.919a.828.828,0,0,0,1.47-.524V20.584A3.9,3.9,0,0,0,54.065,18.109Zm-1.656,0a2.264,2.264,0,1,1-2.264-2.264A2.266,2.266,0,0,1,52.409,18.109ZM30.656,5.355V3.037a1.38,1.38,0,0,1,2.759-.07c0,.052,0-.112,0,2.389Zm4.417,18.551c0-22.155.031-21-.058-21.457a3.026,3.026,0,0,0-.273-.793H48.489a.829.829,0,0,1,.828.828V14.278a3.917,3.917,0,0,0-2.208,6.307v3.321Zm15.714.3a.828.828,0,0,0-1.283,0l-.739.9V21.777a3.91,3.91,0,0,0,2.76,0v3.338Z" transform="translate(917 1014.786)"/><path class="a" d="M397.741,313.007a.828.828,0,1,0,.906.743A.829.829,0,0,0,397.741,313.007Z" transform="translate(569.323 719.063)"/><path class="a" d="M189.828,186.656h7.067a.828.828,0,1,0,0-1.656h-7.067a.828.828,0,0,0,0,1.656Z" transform="translate(765.833 833.923)"/><path class="a" d="M197.723,241.828a.828.828,0,0,0-.828-.828h-7.067a.828.828,0,0,0,0,1.656h7.067A.828.828,0,0,0,197.723,241.828Z" transform="translate(765.833 781.015)"/><path class="a" d="M197.723,241.828a.828.828,0,0,0-.828-.828h-7.067a.828.828,0,0,0,0,1.656h7.067A.828.828,0,0,0,197.723,241.828Z" transform="translate(765.833 784.107)"/></g></svg>